<?xml version="1.0" encoding="UTF-8"?>
<svg xmlns="http://www.w3.org/2000/svg" width="504.674" height="368.239" viewBox="0 0 504.674 368.239">
  <g id="Group_3466" data-name="Group 3466" transform="translate(-814 -91.894)">
    <g id="Group_3465" data-name="Group 3465">
      <g id="Group_3252" data-name="Group 3252" transform="translate(929 91.894)" opacity="0.854" style="mix-blend-mode: multiply;isolation: isolate">
        <path id="Path_22" data-name="Path 22" d="M434.584,375.314c2.4,7.582,7.123,13.143,12.075,18.552,5.6,5.067,11.314,9.942,19.238,12.3.494.191,1.066.306,1.6.457-2.018-8.724-7.009-15.314-12.647-20.951s-12.228-10.628-20.952-12.648A19.941,19.941,0,0,0,434.584,375.314Z" transform="translate(-207.002 -187.164)" fill="none"></path>
        <path id="Path_23" data-name="Path 23" d="M448.914,425.985l-.685-.686a10.292,10.292,0,0,1-.876-.952l-.344-.342A106.526,106.526,0,0,1,431.2,401.718c-1.066.609-2.172,1.105-3.315,1.638a87.047,87.047,0,0,1-36,7.886c-54.7,0-95.654-51.846-84.645-104.911a69.936,69.936,0,0,1,8.114-20.609l.038-.038a74.913,74.913,0,0,1-7.01-3.961,115.769,115.769,0,0,1-15.732-12.152c-.495-.419-.952-.876-1.41-1.258l-.685-.686a10.461,10.461,0,0,1-.877-.952l-.341-.342a110.651,110.651,0,0,1-12.076-15.81,139.854,139.854,0,0,0-12.609,24.571c-19.543,50.474-6.742,107.463,30.779,145.975,43.886,42.818,111.464,52.57,164.91,21.6,1.486-.876,3.466-2.018,5.713-3.276a115.688,115.688,0,0,1-15.732-12.152C449.828,426.822,449.371,426.365,448.914,425.985Z" transform="translate(-226.971 -200.883)" fill="none"></path>
        <path id="Path_24" data-name="Path 24" d="M445.835,486.473c6.2-2.777,10.088-4.248,12.779-5.26l14.933-8.482,30.009-21.088-27.406-3.42a79.641,79.641,0,0,1-7.212-4.077c-2.247,1.258-4.228,2.4-5.713,3.276-53.446,30.971-121.025,21.219-164.91-21.6-37.521-38.512-50.322-95.5-30.779-145.975a139.854,139.854,0,0,1,12.609-24.571c-1.333-2.095-2.59-4.266-3.733-6.475-6.247-12.343-8.609-25.828,1.294-35.808l.038-.039c.534-.534,1.105-1.029,1.715-1.561a25.187,25.187,0,0,1,4.991-3.315,10.454,10.454,0,0,0-1.753.838C270.2,216,259.8,233.03,252.6,245.029c-38.476,64.532-26.819,147.348,24.913,200.832l.8.8C322.654,489.552,387.312,505.5,445.835,486.473Z" transform="translate(-229.851 -205.636)" fill="#f4ae45"></path>
        <path id="Path_25" data-name="Path 25" d="M310.373,282.143l-.038.038a69.935,69.935,0,0,0-8.114,20.609C291.212,355.855,332.162,407.7,386.866,407.7a87.046,87.046,0,0,0,36-7.886c1.143-.533,2.249-1.029,3.315-1.638-6.247-12.343-8.61-25.828,1.294-35.808-1.333,1.181-2.742,2.362-4.19,3.581A57.618,57.618,0,0,1,401.494,377a58.291,58.291,0,0,1-44.8-6.629c-28.532-17.561-36.456-57.407-15.924-84.187.991-1.3,1.9-2.514,2.781-3.7C333.8,290.029,321.573,287.781,310.373,282.143Z" transform="translate(-221.948 -197.342)" fill="#f4ae45"></path>
        <path id="Path_26" data-name="Path 26" d="M491.575,397.265c-8.8-21.9-32.761-46.17-56-49.141,14.058,2.552,28.571,13.713,37.142,22.284C479.08,376.77,487,386.674,491.575,397.265Z" transform="translate(-206.814 -189.953)" fill="#f4ae45"></path>
        <path id="Path_27" data-name="Path 27" d="M414.06,390.839a106.527,106.527,0,0,0,15.808,22.286l.344.343a10.289,10.289,0,0,0,.876.952l.685.686c.457.38.914.837,1.41,1.257a115.684,115.684,0,0,0,15.732,12.152,79.635,79.635,0,0,0,7.212,4.076v-3.774H477.34V412.04h21.147a42.46,42.46,0,0,0-3.9-14.725c-4.571-10.591-12.5-20.495-18.857-26.857-8.571-8.571-23.085-19.732-37.142-22.284-7.58-1.334-15.084-.152-21.485,5.258-.609.533-1.181,1.027-1.715,1.561l-.038.038C405.45,365.011,407.813,378.5,414.06,390.839Zm43.617-2.323c5.638,5.637,10.628,12.227,12.647,20.951-.533-.151-1.105-.266-1.6-.457-7.924-2.362-13.638-7.237-19.238-12.3-4.952-5.41-9.675-10.971-12.075-18.552a19.918,19.918,0,0,1-.686-2.285C445.449,377.888,452.04,382.877,457.678,388.516Z" transform="translate(-209.83 -190.004)" fill="#f4ae45"></path>
        <path id="Path_28" data-name="Path 28" d="M273.6,213.2l-.038.039c-9.9,9.98-7.541,23.465-1.294,35.808,1.143,2.21,2.4,4.38,3.733,6.475a110.653,110.653,0,0,0,12.076,15.81l.341.342a10.467,10.467,0,0,0,.877.952l.685.686c.458.381.915.838,1.41,1.258a115.775,115.775,0,0,0,15.732,12.152,74.891,74.891,0,0,0,7.01,3.961c11.2,5.638,23.428,7.886,33.18.342l.076-.076c.076-.076.228-.152.344-.267a23.662,23.662,0,0,0,2.056-1.828c9.333-9.333,8.19-21.751,3.01-33.333-.152-.3-.267-.57-.419-.876a31.713,31.713,0,0,0-1.448-3.047,94.213,94.213,0,0,0-14.514-20.382c-.838-.914-1.677-1.751-2.476-2.552-.533-.534-1.1-1.1-1.715-1.638-.533-.533-1.142-1.142-1.751-1.676-.915-.762-1.829-1.6-2.743-2.362-8.457-7.238-19.847-14.59-30.932-16.609a26.96,26.96,0,0,0-13.18.685,6.18,6.18,0,0,0-1.41.5,7.983,7.983,0,0,0-1.219.457c-.229.077-.457.229-.686.3a25.186,25.186,0,0,0-4.991,3.315C274.7,212.171,274.133,212.666,273.6,213.2Zm54.932,54.475c-.533-.152-1.1-.267-1.6-.458a2.462,2.462,0,0,1-.571-.19c-7.657-2.4-13.18-7.161-18.667-12.114-4.952-5.409-9.675-10.972-12.075-18.551a2.726,2.726,0,0,1-.229-.838,8.085,8.085,0,0,1-.457-1.448c8.723,2.019,15.314,7.009,20.952,12.648S326.512,258.951,328.532,267.675Z" transform="translate(-225.708 -205.882)" fill="#f4ae45"></path>
        <path id="Path_29" data-name="Path 29" d="M415.364,355l-.038.038c-9.9,9.98-7.541,23.465-1.294,35.808,1.143,2.209,2.4,4.38,3.733,6.476a110.7,110.7,0,0,0,12.076,15.809l.341.343a10.161,10.161,0,0,0,.877.952l.686.686c.457.381.914.838,1.409,1.258a115.77,115.77,0,0,0,15.732,12.152,74.654,74.654,0,0,0,7.01,3.961c11.2,5.639,23.428,7.886,33.18.344l.076-.077c.076-.076.228-.151.344-.266a23.457,23.457,0,0,0,2.056-1.829c9.333-9.333,8.19-21.752,3.01-33.332-.152-.3-.267-.572-.419-.876A31.7,31.7,0,0,0,492.7,393.4a94.2,94.2,0,0,0-14.514-20.38c-.838-.914-1.676-1.752-2.476-2.552-.533-.534-1.1-1.105-1.715-1.638-.533-.534-1.142-1.143-1.751-1.677-.915-.762-1.829-1.6-2.743-2.361-8.457-7.239-19.847-14.59-30.932-16.61a26.974,26.974,0,0,0-13.18.686,6.227,6.227,0,0,0-1.41.495,8,8,0,0,0-1.219.457c-.228.077-.457.229-.686.306a25.181,25.181,0,0,0-4.991,3.314C416.469,353.976,415.9,354.47,415.364,355ZM470.3,409.478c-.533-.152-1.1-.267-1.6-.457a2.516,2.516,0,0,1-.572-.191c-7.657-2.4-13.18-7.161-18.667-12.113-4.952-5.41-9.675-10.972-12.075-18.552a2.715,2.715,0,0,1-.229-.837,8.119,8.119,0,0,1-.457-1.448c8.724,2.018,15.314,7.009,20.952,12.647S468.277,400.754,470.3,409.478Z" transform="translate(-209.833 -190.002)" fill="#f4ae45"></path>
        <path id="Path_30" data-name="Path 30" d="M382.115,371.4c-6.886.863-16.065-3.777-26.6-9.482-8.6-4.655-20.357-5.117-20.357,28.508,0,26.8,1.438,37.735,19.411,38.256,31.167.9-2.837,88.212,24.034,88.743,30.406.6,3.157-91.816,19.386-93.565,18.856-2.033-1.379,66.558,28.088,65.617,29.171-.931,7.448-63.305,30.588-58.23,18.711,4.1-18.175,125.652,8.383,125.652,26.719,0-3.942-120.785,14.984-120.738,11.7.029,29.665,29.421,29.656-14.333-.005-25.551-10.274-37.86-27.985-56.148-8.394-8.667-41.944-5.321-54.862-3.76C411.657,363.755,408.483,368.1,382.115,371.4Z" transform="translate(-218.059 -188.662)" fill="#f4ae45"></path>
        <path id="Path_31" data-name="Path 31" d="M404.831,418.511c-2.988-2.606-5.024-6.4-9.092-6.969-3.9-.54-6.19.371-9.614,2.063-1.719.849-.145,3.392,1.57,2.544,2.78-1.372,4.469-2.093,7.644-1.648,3.385.474,5.1,3.847,7.586,6.011C404.364,421.768,406.28,419.775,404.831,418.511Z" transform="translate(-212.435 -182.869)" fill="#fff" opacity="0.35"></path>
        <path id="Path_32" data-name="Path 32" d="M338.78,404.421c.493,3.934.231,8.253,2.89,11.383,2.55,3,4.865,3.845,8.546,4.864,1.848.512,2.366-2.433.524-2.943-2.988-.827-4.728-1.416-6.8-3.861-2.21-2.608-2.5-6.408-2.909-9.675C340.791,402.294,338.541,402.515,338.78,404.421Z" transform="translate(-217.655 -183.822)" fill="#fff" opacity="0.35"></path>
        <path id="Path_33" data-name="Path 33" d="M407.353,460.194a39.618,39.618,0,0,1-.536-8.325c.066-1.72-2.608-1.717-2.672,0a42.857,42.857,0,0,0,.631,9.036C405.07,462.6,407.647,461.879,407.353,460.194Z" transform="translate(-210.337 -178.48)" fill="#fff" opacity="0.35"></path>
        <path id="Path_34" data-name="Path 34" d="M428.4,442.306a50.833,50.833,0,0,1-.078,17.844c-1.15,5.955-2.413,12.272-7.583,12.767-1.747.168-1.221,3.464.476,2.99,5.866-1.638,7.488-7.556,8.773-12.635,1.885-7.454,2.39-14.317.893-21.2C430.47,440.17,428.076,440.378,428.4,442.306Z" transform="translate(-208.596 -179.581)" fill="#fff" opacity="0.35"></path>
        <path id="Path_35" data-name="Path 35" d="M481.641,429.731c-2.987-2.606-5.024-6.4-9.092-6.968-3.9-.542-6.19.371-9.614,2.062-1.719.849-.144,3.393,1.57,2.545,2.78-1.373,4.47-2.094,7.644-1.649,3.385.475,5.1,3.847,7.586,6.013C481.174,432.989,483.089,431,481.641,429.731Z" transform="translate(-203.833 -181.612)" fill="#fff" opacity="0.35"></path>
        <path id="Path_36" data-name="Path 36" d="M437.684,351.489a19.089,19.089,0,0,0-15.843,4.7c-1.125,1.068.568,2.779,1.693,1.712,8.855-8.392,21.551-2.844,29.287,4.078,1.15,1.029,2.87-.657,1.712-1.694C449.767,356.015,444.139,352.38,437.684,351.489Z" transform="translate(-208.393 -189.599)" fill="#fff" opacity="0.35"></path>
        <path id="Path_37" data-name="Path 37" d="M457.408,501.057c.8,6.1,1.945,11.154.838,17.758-1.388,8.29-2.522,10.566-5.275,13.033-2.306,2.066-.974,5.591.7,5.043,4.965-1.629,6.474-8.922,7.138-14.12a61.916,61.916,0,0,0-.917-21.948C459.476,498.921,457.154,499.118,457.408,501.057Z" transform="translate(-205.004 -173.002)" fill="#fff" opacity="0.35"></path>
        <path id="Path_38" data-name="Path 38" d="M370.322,467.133c-.8,6.1-1.945,11.154-.84,17.758,1.389,8.29,2.523,10.566,5.276,13.034,2.306,2.066.974,5.591-.7,5.042-4.965-1.629-6.474-8.921-7.138-14.119a61.922,61.922,0,0,1,.916-21.948C368.254,465,370.576,465.194,370.322,467.133Z" transform="translate(-214.566 -176.801)" fill="#fff" opacity="0.35"></path>
      </g>
    </g>
    <g id="Group_3464" data-name="Group 3464">
      <path id="Path_4121" data-name="Path 4121" d="M875.591,913.326h491.246c3.259,0,5.938,2.162,5.938,4.8s-2.671,4.8-5.937,4.8h-4.025c-7.09.131-5.813,6.527-5.813,6.527l-.094-.09V947.59c0,2.09-2.1,3.785-4.682,3.785s-4.683-1.7-4.683-3.785V929.721c0-2.094-2.095-3.785-4.684-3.785s-4.684,1.691-4.684,3.785v6.38c0,2.092-2.1,3.785-4.682,3.785s-4.684-1.693-4.684-3.785v-7.414a5.765,5.765,0,0,0-5.765-5.765h-312.1v.026a5.764,5.764,0,0,0-5.765,5.765v7.414c0,2.091-2.1,3.785-4.684,3.785s-4.682-1.694-4.682-3.785v-9.873a3.275,3.275,0,0,0-3.013-3.332H875.591c-3.265,0-5.937-2.158-5.937-4.8S872.325,913.326,875.591,913.326Z" transform="translate(-54.654 -561.277)" fill="#f5ba19"></path>
      <g id="Group_3452" data-name="Group 3452" transform="translate(814.726 -1401.398)">
        <g id="Group_3448" data-name="Group 3448" transform="translate(4.724 1560.398)">
          <path id="Path_4306" data-name="Path 4306" d="M52.546,1649.441V1595.72l-.459-.515v-6.522l-.919-7.036v-3.777l-.46-2.746v-6.008l-1.378-3.088-2.145-1.373L42.13,1566.2l-1.225,1.716v2.918l-.614,1.2v.687l-10.263,37.415-.919,1.031-3.677-16.478L24.82,1594v-1.03l-6.741-22.827-2.6-3.262H7.509l-.46,8.753v11.842l-.613,1.2v9.613l.613.514-.613,1.373v5.836l-.46,1.717,1.072-.515v1.2l-.613.514v1.2H7.05l-.613,1.031v1.373H7.509l-.46,1.716H6.437v2.4l-.46,1.373.46,3.261v4.805l-.46,1.888,1.379-.857-.919,2.4.767,1.03-.767.858-.46,2.574,1.072-.686v1.029H6.437l-.613,3.433,1.225,1.373H5.977v2.575l1.072-.687-.613,1.2,1.072-.515.919.515v1.2l-.614.516-1.378-1.031-1.225,1.545.766,4.291v4.805l-.459,1.029v3.09l.918-.686-.918,1.716v1.887l-.307,2.4,1.225-1.2,1.378,2.918L5.977,1663l-.459.687v2.917l.766,1.546-1.072.686.766.686-.459.515-.614,3.433,1.072,1.373,1.838,1.716h2.452l2.3-1.373v-16.477l.613-1.716v-7.037l.307-2.4v-10.126l-.766-1.031.766-2.06v-12.357l.46-2.4v-8.409l.613-10.47v-6.008l.46-4.119.46-.686,1.838,5.835,7.047,30.208,2.3,1.373.613.686h1.838l3.677-2.231,7.506-27.461.614-1.2,2.451-8.925.766,5.835h.919l-1.072,1.372,1.072,9.955v5.32l-.46,1.888.46.515-.46,1.2v3.089l1.072,1.031-.613.514v12.53l.613.857-.613,2.06.613.686-.918,6.867,1.225,2.917-.919,2.06,1.225-.686-.613,2.06v4.634l.767,1.2-.767.514V1663l.307,4.119-.307.515v7.552l2.3,3.948,3.677-1.888,1.991-2.4-.459-18.366ZM6.437,1637.427l.613-1.2.46,1.2Zm1.072-16.134-.46.686v-2.4l.46-1.2ZM46.42,1663l-.46-1.716.46-.687Z" transform="translate(-4.905 -1560.535)" stroke="#000" stroke-width="1.25"></path>
          <path id="Path_4307" data-name="Path 4307" d="M98.3,1654.281l-.459-3.6-.46-.687v-1.545l-.919-6.35v-3.948l-1.072-6.522v-6.35l-.459-2.231v-2.574l-.46-2.231v-1.717l-.46-1.545v-6.351H93.1l-3.83-35.7v-1.717l-.613-1.029-.459-3.262-.919-3.261-2.452-2.574H80.076l-.614-.687H76.705v6.18l-1.071,3.6-.919,8.582v2.917l-.613,4.291.613,1.546-.46.515v3.26l-.918,2.232v3.262l-.919,5.148,1.838-1.544v.686l-.46.343-.459,1.2H72.263v4.292l-.613.686.919,1.2-.766,2.4v2.746l-.46.515-.46,3.262.46.515-.919,2.573H71.8l-1.379,3.262v4.291l.919,1.2-.919,1.03v1.03l-.613,1.2,1.072,1.03-1.072.686v4.634l1.072,2.231-1.378,1.717v1.545l-1.073,1.029.614.859-.767,1.716.613.686-.918,1.03v1.716l.459,1.031-.459.515L69.2,1654.8l-.767,1.716v-1.03h-.918v3.776l.613,1.544h-.613l-.613,2.059.613,1.2-1.532,3.088,2.451.687-.459,1.2-.46-.686-1.532,2.4v4.119l-.46-.515v3.776l2.452,2.747h2.91l2.452-1.373v-6.179l1.838-19.052v-2.574H90.646v2.232l.918-1.2-.459,1.544v2.232l1.378,1.716-1.225,2.06h.919l-.767,1.373,1.072,7.723v3.948l.766,3.433,2.758,1.372,3.676-1.372,1.072-2.747-1.991-17.506Zm-24.968-18.707-1.073.344,1.073-1.031Zm15.318-47.027.613-.514-.613,1.2Zm1.992,53.893-.919,1.029-1.531.687-12.562,1.372v-5.663l1.071-2.232v-6.007l.46-1.545,1.379-13.9v-1.716l1.991-15.1v-1.545l.46-.686v-2.06l.46-2.231v-3.605l.919-2.231,1.072,2.575v7.551l.918,1.031-.766.858,1.685,11.156h1.072l-.766,1.545,1.225,7.036.46.686.459,8.925.461,3.261v6.007h1.071v1.545l-.613.687.613.514v1.03l.46.687.919-.687-.46-.515v-1.029l.46,1.544Zm1.838,14.073-.919-1.03.919-1.545Z" transform="translate(-6.854 -1560.398)" stroke="#000" stroke-width="1.25"></path>
          <path id="Path_4308" data-name="Path 4308" d="M146.068,1652.4l-.613.859H145l-2.3,1.03-3.524,9.44-4.442,5.491h-3.677l-3.83-4.805-2.6-7.208-2.145-8.238v-3.433l-.46-4.805V1633l-.918-13.731,1.991-31.752,3.677-11.842,2.145-3.432H133.2l.459.858h2.3v.686l3.829,4.634,1.532,7.037h4.749l2.6-3.089.614-3.261-2.3-5.321-4.441-5.663-6.281-2.232h-7.507l-9.038,5.835-2.757,3.433v2.574l-1.378,2.575v2.06l-.614.515-1.072,6.007v9.1l-1.071.858.459.515-.459,1.373V1604l-.614,2.574v17.163l.614,5.15v9.954h1.532v.687l-1.073.686-.613,1.888h.613v3.948l1.685,10.641v1.373l1.072-.859v2.918l.614.343,1.071,3.948,1.532,2.06.46,2.06,4.9,5.836,3.217,2.058,7.353.687,6.587-4.119,4.9-5.665,3.676-6.865v-7.208Zm-31.709-16.648-.461-.859h.461Zm0-23.17-.461.686v-.686l.461-1.372Z" transform="translate(-8.356 -1560.575)" stroke="#000" stroke-width="1.25"></path>
        </g>
        <g id="Group_3449" data-name="Group 3449" transform="translate(178.632 1564.003)">
          <path id="Path_4309" data-name="Path 4309" d="M228.572,1632.573l-.613.343.613.516Z" transform="translate(-185.986 -1566.324)" stroke="#000" stroke-width="1.25"></path>
          <path id="Path_4310" data-name="Path 4310" d="M243.721,1680.833l-2.145-3.09h-.613l-.307-2.746-1.991-2.746-.153-.687-.46.343-.154-1.715-1.685-2.919-.153-1.372h-.919l-1.225-1.373-.306-1.545-.919-.515-1.072-1.373.307-1.029-.46-.515h-.613v-1.031l-.613.516-.614-1.373h-.612l-2.146-3.6-.153-.858H226.1v-.859h-.613l-.153-2.231-.613.858.613-2.06-.307-3.433.919-1.372.307,1.888.918-1.373v-1.031l.613-.857-.919.343.154-1.372.306.686.614-1.03.918-.686-.46-.686.307-1.888-.613-.858.306-.859-.306-2.4.153-1.373-1.225,2.4v-2.059l-.919,3.432-.307-1.373-.306-.686.767-.343-.307-1.373-1.072-1.372.153-.516-.918-.344.153,1.373-.766,1.373-.154-1.373-.918,1.373-.154-1.887-.46.514-.306,1.888H220.9v3.089l-.767.858.307,1.716-.766.687v-1.2l-1.226-1.2-.306-2.231-.614,1.029-.459-.514.459-.859-.612-2.4-.614.515v-2.4h-.918l-1.532-2.746-.46-1.717-.459-.514-.154,1.373-1.072-1.888v-1.2l-.613.344v-.858l-.918-2.059-.767.858.306-1.716h-.766l-.46-3.09h-.766l-.767-2.059-1.225-.858-.153-2.06-.307-.515-.612-3.09-.767-1.372.153,2.4-.153.515-.306-1.2-.307-2.4.46-.687-.307-.514-.306-1.373.613-.515.459.515,1.992-1.888-.613-2.059.46-1.2.46.686h1.072l1.378-2.746-.46-.515.919-1.888,1.532.515.46-.515-.919-.343.766-1.717-.613-1.373h1.225l.613-3.432.307,1.03.919-.686.918-4.12-.459-1.545-.307-3.432h.613v-1.717l.613-.343-.306-.515-.613-3.262-.614.686-.766-2.917-.46-.857v-.859h-1.225l-1.532-2.4-1.378-.344-.766-1.029H206.5l-1.685-1.031-.919.686-1.532-1.029-2.145.515-.306,1.2-1.532-1.716-.46.515H197l-.154.514-2.451,2.232h-.613l-1.225,2.231.153,1.373-.613,2.231h-.613l-.307,3.262,1.838,17.85,2.757,8.41-5.515,10.126-.459,1.031-.46.343.306.686-.613.687-3.063,12.357-.154,2.746.154,2.4-.46-.515-.613,3.776-.307,3.605.307,7.551.766,7.036,1.838,9.1.613,2.231.154,1.545.918.687.154,2.06,1.685,4.805.46.343.613,1.546,2.3,3.088,1.991,1.373h3.83l.614-.343.612.858,1.226-1.029,1.072.514,2.6-.343,1.072-.345,1.531-1.2.307.515,4.442-3.6-.766-.344.766-.686.766-2.06h.613l.614.686.306-3.432.46-1.545.153-1.373h.766l1.685-3.6.614-3.947.612,1.373h.767l.46-2.232,1.072-.858,2.145,3.09.46,1.029,12.1,18.021,3.983,4.119h.918l.46.515.307-1.03,1.685-.858Zm-44.271-102.98,1.072-3.6,2.6-3.262,1.225,1.717,1.838,4.977-.613,5.493-.766,1.03-4.137,10.984.154.859h-.767l-.613-.859v-1.717l.153-.858v1.373l.46-1.888-.46-1.373.307-1.545-.46-1.716.153-.687-.46-3.432.46-.859Zm15.472,71.056.307.515-.46,2.4-.154-1.372-.613,1.03.154.858-.614.345-2.3,5.32-.766,2.573-.767,1.888v1.2l-4.442,7.38-2.91,2.231h-1.838l-1.225-1.716v-1.03l-1.072-1.373-.307,1.373-.766-1.545h.613l-1.072-5.32v2.231l-.767-1.373.46-1.2-.153-.514-.307.859-.766-3.09-.306-3.432h-.613l-.614-.859-.153-1.372.613.343-.306-2.573h.766l-.306-1.717-.154.858-.613-.686.767-1.716-.307-.859v.859l-.767,2.4-.766-4.119.919-7.38-.154-2.4,1.073-2.06-.919-1.2.46-.686V1632.6h.613l.613-2.232-.307-1.715.307-1.545-.613.514.153-1.373.46-1.372.153-1.373.613.515v.859l.307-.515.46-2.747-.154-1.2.919,1.029.46-2.231-.766-1.2.459-3.09h.614l-.307,1.717h.918l.919-1.03,1.838,2.918.461.343,11.488,23.514.767.686,1.532,3.433Zm8.732-13.9v-1.029l.766-.344.153-1.373.767,1.717-1.072.343Zm.766,2.919.307-2.06.153,1.716Z" transform="translate(-184.591 -1564.123)" stroke="#000" stroke-width="1.25"></path>
          <path id="Path_4311" data-name="Path 4311" d="M210.691,1598.457l.613-1.373-1.072-.687Z" transform="translate(-185.416 -1565.161)" stroke="#000" stroke-width="1.25"></path>
        </g>
        <g id="Group_3450" data-name="Group 3450" transform="translate(258.487 1564.003)">
          <path id="Path_4312" data-name="Path 4312" d="M300.342,1653.256h-.46l-2.3,1.03-3.523,9.44-4.443,5.491h-3.676l-3.83-4.805-2.6-7.208-2.146-8.238v-3.433l-.459-4.805V1633l-.919-13.731,1.992-31.752,3.676-11.842,2.145-3.432h4.289l.46.858h2.3v.686l3.83,4.634,1.531,7.037h4.749l2.6-3.089.613-3.261-2.3-5.321-4.442-5.663-6.281-2.232h-7.506l-9.039,5.835-2.757,3.433v2.574l-1.378,2.575v2.06l-.613.515-1.072,6.007v9.1l-1.072.858.46.515-.46,1.373V1604l-.613,2.574v17.163l.613,5.15v9.954h1.532v.687l-1.072.686-.613,1.888h.613v3.948l1.685,10.641v1.373l1.072-.859v2.918l.613.343,1.072,3.948,1.532,2.06.459,2.06,4.9,5.836,3.216,2.058,7.353.687,6.587-4.119,4.9-5.665,3.677-6.865v-7.208l-4.289-.859Zm-31.1-17.506-.46-.859h.46Zm0-23.17-.46.686v-.686l.46-1.372Z" transform="translate(-267.1 -1564.18)" stroke="#000" stroke-width="1.25"></path>
          <path id="Path_4313" data-name="Path 4313" d="M346.821,1567.756l-1.532-.687h-3.217L341,1583.717v8.238h-1.685L326.6,1594.53l-1.532-.515-.46-23-.919-3.089-4.289-2.918-2.6.687.307,47.37.306,5.321v3.432l.613,10.641v3.434l1.992,36.042,3.83,6.007,3.216-1.029,1.226-2.232v-7.552l-1.073-2.917.46-1.031-.46-6.521v-2.747l-.612-4.633v-3.434l-.46-5.148v-6.179l-.613-.686v-7.208l.613-2.747-.613-5.492v-15.1h2.144l10.57-2.06H341v11.328l-.612,1.2v24.2l2.91,4.119-2.91-2.747v5.835l.612,1.373v1.372l-.612-.686v12.015l1.378-.858-1.378,3.433,1.072-.687v2.747l.612.686-1.072.515v3.433l.461,1.372v6.694l.612.515-.918,2.06,1.072,2.574,1.992.857h3.676l1.532-1.372-1.379-15.447h-.613l-.459.686h-.919l1.991-3.433v-15.1l-.613-3.432h1.072v-33.983l.613-2.06-.613-.686.613-.515v-1.2l.46-3.432.46-32.1-2.145-2.746ZM319.554,1629.2l-.46.514.46-1.2Zm23.59,44.795-.613-.686h.613Zm1.073.687-.307-2.06.307.686Zm0-8.924-.614.686.614-1.373Z" transform="translate(-268.698 -1564.151)" stroke="#000" stroke-width="1.25"></path>
          <path id="Path_4314" data-name="Path 4314" d="M387.777,1564.809l-3.064-.686h-8.272l-7.353,1.2-1.685.859-2.451-.859-2.452,1.03v16.992l-.612,1.372v13.216l-.459.687v9.268H362.5v.686h-1.072v36.043l.612,1.888-.612.686v4.119l.919,1.029-.919,2.4v1.887l1.531-1.029v1.029h-1.072v3.261l-.459.686v1.2h.459v9.439l.612,6.179,3.064,2.917,12.408-1.2h5.209l5.668-.687,3.064-3.775.612-2.747-1.072-1.373-2.3-.687-9.651.687h-6.74l-1.991.686-.613-1.373-1.378-52.862,4.6-1.717h3.064l5.821-.686,1.991-2.574v-4.119l-2.145-1.029h-5.668l-6.434.858.92-32.953.919-1.373h3.523l8.426-.686h5.515l3.216-2.06V1566.7l-3.216-1.888Z" transform="translate(-270.133 -1564.123)" stroke="#000" stroke-width="1.25"></path>
          <path id="Path_4315" data-name="Path 4315" d="M430.195,1564.809l-3.064-.686h-8.272l-7.353,1.2-1.685.859-2.451-.859-2.452,1.03v16.992l-.612,1.372v13.216l-.459.687v9.268h1.072v.686h-1.072v36.043l.612,1.888-.612.686v4.119l.919,1.029-.919,2.4v1.887l1.531-1.029v1.029h-1.072v3.261l-.459.686v1.2h.459v9.439l.612,6.179,3.064,2.917,12.408-1.2H425.6l5.668-.687,3.064-3.775.612-2.747-1.072-1.373-2.3-.687-9.651.687h-6.74l-1.991.686-.613-1.373-1.378-52.862,4.6-1.717h3.064l5.821-.686,1.991-2.574v-4.119l-2.145-1.029h-5.668l-6.434.858.92-32.953.919-1.373h3.523l8.426-.686h5.515l3.216-2.06V1566.7l-3.216-1.888Z" transform="translate(-271.497 -1564.123)" stroke="#000" stroke-width="1.25"></path>
          <path id="Path_4316" data-name="Path 4316" d="M456.375,1578.087v-.858l2.451-4.291,6.128,2.231,2.91,2.231,1.685,4.805,2.6,2.06,2.452-1.373.459.516,1.532-3.776-.92-4.291-4.6-5.493-9.8-3.775-5.668,1.372-2.758,2.4-3.063,1.717-1.838,2.231-1.685,6.007v9.439l18.689,44.625,2.3,8.239.919,11.671-.766,14.246-1.532,3.432-.459,1.888-.92.343-1.531,1.888h-3.523l-2.911-3.089-1.226-6.865.613-10.641.612-1.717-1.226-2.918h-1.531l-.613-.858-.919.858-1.991,1.2-1.991,2.231v18.708l1.532.858.459,2.917,1.685,1.888,6.433,3.261h7.047l4.136-2.4,4.6-5.321,1.838-7.551V1659.1l.612-1.2V1645.71l-2.3-10.813-11.336-27.461-1.073-1.888L455.3,1590.96v-8.753Z" transform="translate(-272.862 -1564.185)" stroke="#000" stroke-width="1.25"></path>
          <path id="Path_4317" data-name="Path 4317" d="M498.307,1573.391h3.523l8.426-.686h5.515l3.216-2.06V1566.7l-3.216-1.888h-1.532l-3.064-.686H502.9l-7.353,1.2-1.685.859-2.451-.859-2.452,1.03v16.992l-.612,1.372v13.216l-.459.687v9.268h1.072v.686H487.89v36.043l.612,1.888-.612.686v4.119l.919,1.029-.919,2.4v1.887l1.531-1.029v1.029H488.35v3.261l-.459.686v1.2h.459v9.439l.612,6.179,3.064,2.917,12.408-1.2h5.209l5.668-.687,3.064-3.775.612-2.747-1.072-1.373-2.3-.687-9.651.687h-6.74l-1.991.686-.613-1.373-1.378-52.862,4.6-1.717H502.9l5.821-.686,1.991-2.574v-4.119l-2.144-1.029H502.9l-6.434.858.92-32.953Z" transform="translate(-274.2 -1564.123)" stroke="#000" stroke-width="1.25"></path>
        </g>
        <g id="ANY_WAY_YOU_PLEASE" data-name="ANY WAY YOU PLEASE" transform="translate(-0.726 1701.682)" style="isolation: isolate">
          <g id="Group_3451" data-name="Group 3451" style="isolation: isolate">
            <path id="Path_4318" data-name="Path 4318" d="M-.455,1735.668a.831.831,0,0,1-.271-.6,1.252,1.252,0,0,1,.042-.375l9.7-26.676a1.625,1.625,0,0,1,1.665-1.208h6.492a1.626,1.626,0,0,1,1.665,1.208l9.7,26.676a1.285,1.285,0,0,1,.042.375.927.927,0,0,1-.874.874h-5.41a1.443,1.443,0,0,1-1.415-.916l-1.5-4.037H8.471l-1.5,4.037a1.444,1.444,0,0,1-1.415.916H.148A.832.832,0,0,1-.455,1735.668Zm10.674-10.925h7.408l-3.7-10.612Z" transform="translate(0.726 -1706.391)"></path>
            <path id="Path_4319" data-name="Path 4319" d="M36.35,1735.626a1,1,0,0,1-.312-.729v-27.009a1.088,1.088,0,0,1,.291-.77.978.978,0,0,1,.749-.313h4.7a1.526,1.526,0,0,1,1.415.791l9.821,15.523v-15.231a1.088,1.088,0,0,1,.291-.77.978.978,0,0,1,.749-.313h5.285a.982.982,0,0,1,.75.313,1.088,1.088,0,0,1,.29.77v26.967a1.088,1.088,0,0,1-.29.77.982.982,0,0,1-.75.312h-4.7a1.522,1.522,0,0,1-1.415-.791l-9.78-14.9V1734.9a.976.976,0,0,1-.312.749,1.086,1.086,0,0,1-.77.291H37.078A1,1,0,0,1,36.35,1735.626Z" transform="translate(-0.456 -1706.391)"></path>
            <path id="Path_4320" data-name="Path 4320" d="M77.994,1735.626a1,1,0,0,1-.312-.729v-8.865l-9.614-17.9a.861.861,0,0,1-.126-.457.933.933,0,0,1,.875-.875H74.31a1.518,1.518,0,0,1,.958.291,1.853,1.853,0,0,1,.54.625l5.786,10.445,5.784-10.445a1.871,1.871,0,0,1,.542-.625,1.516,1.516,0,0,1,.957-.291h5.493a.929.929,0,0,1,.873.875.869.869,0,0,1-.125.457l-9.613,17.9v8.865a.98.98,0,0,1-.312.749,1.086,1.086,0,0,1-.77.291h-5.7A1,1,0,0,1,77.994,1735.626Z" transform="translate(-1.482 -1706.391)"></path>
            <path id="Path_4321" data-name="Path 4321" d="M117.119,1735.543a1.588,1.588,0,0,1-.521-.979l-4.453-26.634a.579.579,0,0,1-.042-.25.931.931,0,0,1,.875-.875h5.452q1.206,0,1.332.958l2.539,15.73,2.871-9.114a1.358,1.358,0,0,1,1.373-1.123h3.122a1.358,1.358,0,0,1,1.373,1.123l2.872,9.073,2.58-15.689a1.109,1.109,0,0,1,.374-.729,1.487,1.487,0,0,1,.917-.229h5.452a.812.812,0,0,1,.623.271.865.865,0,0,1,.251.6v.25l-4.454,26.634a1.55,1.55,0,0,1-.54.979,1.665,1.665,0,0,1-1.124.395h-4.2a1.507,1.507,0,0,1-1.04-.333,1.623,1.623,0,0,1-.5-.749l-4.121-11.528-4.12,11.528a1.975,1.975,0,0,1-.54.749,1.51,1.51,0,0,1-1.04.333h-4.162A1.64,1.64,0,0,1,117.119,1735.543Z" transform="translate(-2.902 -1706.391)"></path>
            <path id="Path_4322" data-name="Path 4322" d="M149.139,1735.668a.837.837,0,0,1-.27-.6,1.285,1.285,0,0,1,.042-.375l9.7-26.676a1.624,1.624,0,0,1,1.664-1.208h6.492a1.624,1.624,0,0,1,1.665,1.208l9.7,26.676a1.285,1.285,0,0,1,.042.375.929.929,0,0,1-.875.874h-5.41a1.442,1.442,0,0,1-1.414-.916l-1.5-4.037h-10.9l-1.5,4.037a1.443,1.443,0,0,1-1.415.916h-5.41A.839.839,0,0,1,149.139,1735.668Zm10.676-10.925h7.407l-3.7-10.612Z" transform="translate(-4.085 -1706.391)"></path>
            <path id="Path_4323" data-name="Path 4323" d="M189.88,1735.626a1,1,0,0,1-.312-.729v-8.865l-9.614-17.9a.861.861,0,0,1-.126-.457.931.931,0,0,1,.874-.875H186.2a1.514,1.514,0,0,1,.957.291,1.856,1.856,0,0,1,.541.625l5.786,10.445,5.784-10.445a1.86,1.86,0,0,1,.542-.625,1.516,1.516,0,0,1,.957-.291h5.493a.929.929,0,0,1,.873.875.869.869,0,0,1-.125.457l-9.613,17.9v8.865a.977.977,0,0,1-.313.749,1.084,1.084,0,0,1-.77.291h-5.7A1,1,0,0,1,189.88,1735.626Z" transform="translate(-5.08 -1706.391)"></path>
            <path id="Path_4324" data-name="Path 4324" d="M232.363,1735.626a1,1,0,0,1-.312-.729v-8.865l-9.614-17.9a.86.86,0,0,1-.125-.457.931.931,0,0,1,.874-.875h5.493a1.517,1.517,0,0,1,.957.291,1.852,1.852,0,0,1,.54.625l5.786,10.445,5.785-10.445a1.856,1.856,0,0,1,.541-.625,1.516,1.516,0,0,1,.957-.291h5.493a.931.931,0,0,1,.874.875.869.869,0,0,1-.125.457l-9.614,17.9v8.865a.976.976,0,0,1-.312.749,1.086,1.086,0,0,1-.77.291h-5.7A1,1,0,0,1,232.363,1735.626Z" transform="translate(-6.447 -1706.391)"></path>
            <path id="Path_4325" data-name="Path 4325" d="M258.61,1733.469q-3.412-2.871-3.62-8.448-.042-1.164-.043-3.579t.043-3.621q.164-5.494,3.641-8.469t9.3-2.975q5.785,0,9.261,2.975t3.64,8.469q.084,2.414.083,3.621,0,1.25-.083,3.579-.208,5.578-3.6,8.448t-9.3,2.872Q262.024,1736.341,258.61,1733.469Zm12.777-4.681a5.8,5.8,0,0,0,1.373-4.017q.083-2.413.082-3.454t-.082-3.371a5.8,5.8,0,0,0-1.373-4.015,4.627,4.627,0,0,0-3.455-1.312,4.675,4.675,0,0,0-3.495,1.312,5.785,5.785,0,0,0-1.373,4.015q-.042,1.166-.042,3.371,0,2.247.042,3.454a5.787,5.787,0,0,0,1.373,4.017,4.683,4.683,0,0,0,3.495,1.312A4.634,4.634,0,0,0,271.388,1728.787Z" transform="translate(-7.496 -1706.377)"></path>
            <path id="Path_4326" data-name="Path 4326" d="M292.958,1733.483q-3.351-2.871-3.351-8.615v-16.979a1.084,1.084,0,0,1,.291-.77.977.977,0,0,1,.75-.313h5.7a1.066,1.066,0,0,1,1.082,1.083v16.9a5.42,5.42,0,0,0,1.228,3.87,5.4,5.4,0,0,0,7.033-.021,5.436,5.436,0,0,0,1.227-3.849v-16.9a1.068,1.068,0,0,1,1.082-1.083h5.66a1.066,1.066,0,0,1,1.082,1.083v16.979q0,5.743-3.328,8.615t-9.2,2.872Q296.306,1736.354,292.958,1733.483Z" transform="translate(-8.611 -1706.391)"></path>
            <path id="Path_4327" data-name="Path 4327" d="M336.961,1735.626a1,1,0,0,1-.313-.729v-27.009a1.088,1.088,0,0,1,.291-.77.979.979,0,0,1,.75-.313h11.778q5.409,0,8.49,2.456t3.08,7.2q0,4.744-3.08,7.1t-8.49,2.352h-4.745v8.989a1.033,1.033,0,0,1-.291.729.979.979,0,0,1-.748.312h-5.993A1,1,0,0,1,336.961,1735.626Zm12.3-15.669a3.822,3.822,0,0,0,2.684-.894,3.408,3.408,0,0,0,.979-2.643,3.782,3.782,0,0,0-.9-2.622,3.533,3.533,0,0,0-2.767-1H344.6v7.158Z" transform="translate(-10.123 -1706.391)"></path>
            <path id="Path_4328" data-name="Path 4328" d="M369.382,1735.626a1,1,0,0,1-.313-.729v-27.05a.981.981,0,0,1,.313-.75,1.035,1.035,0,0,1,.729-.291h5.825a1,1,0,0,1,1.04,1.041V1729.4h12.486a1.066,1.066,0,0,1,1.082,1.082v4.411a.977.977,0,0,1-.313.749,1.084,1.084,0,0,1-.769.291H370.11A1,1,0,0,1,369.382,1735.626Z" transform="translate(-11.166 -1706.391)"></path>
            <path id="Path_4329" data-name="Path 4329" d="M398.407,1735.626a1,1,0,0,1-.312-.729v-27.009a1.084,1.084,0,0,1,.291-.77.977.977,0,0,1,.749-.313h19.643a1.066,1.066,0,0,1,1.082,1.083v4.119a.977.977,0,0,1-.312.749,1.086,1.086,0,0,1-.77.291H405.628v5.286h12.235a1.068,1.068,0,0,1,1.082,1.082v3.787a1.066,1.066,0,0,1-1.082,1.082H405.628v5.41h13.484a1.066,1.066,0,0,1,1.082,1.082v4.12a.977.977,0,0,1-.313.749,1.082,1.082,0,0,1-.769.291H399.135A1,1,0,0,1,398.407,1735.626Z" transform="translate(-12.099 -1706.391)"></path>
            <path id="Path_4330" data-name="Path 4330" d="M426.615,1735.668a.837.837,0,0,1-.27-.6,1.253,1.253,0,0,1,.042-.375l9.7-26.676a1.625,1.625,0,0,1,1.665-1.208h6.492a1.625,1.625,0,0,1,1.665,1.208l9.7,26.676a1.252,1.252,0,0,1,.042.375.927.927,0,0,1-.874.874h-5.41a1.443,1.443,0,0,1-1.415-.916l-1.5-4.037h-10.9l-1.5,4.037a1.444,1.444,0,0,1-1.415.916h-5.41A.839.839,0,0,1,426.615,1735.668Zm10.675-10.925H444.7l-3.7-10.612Z" transform="translate(-13.008 -1706.391)"></path>
            <path id="Path_4331" data-name="Path 4331" d="M466.743,1735.175a10,10,0,0,1-4.287-3.08,7.18,7.18,0,0,1-1.54-4.162.816.816,0,0,1,.27-.624.919.919,0,0,1,.646-.25h5.535a1.727,1.727,0,0,1,.811.167,2.69,2.69,0,0,1,.687.583,4.186,4.186,0,0,0,1.685,1.644,6.226,6.226,0,0,0,3.059.646,7.087,7.087,0,0,0,3.454-.687,2.1,2.1,0,0,0,1.207-1.893,1.849,1.849,0,0,0-.624-1.437,5.545,5.545,0,0,0-2-1q-1.373-.439-3.954-.979a17.231,17.231,0,0,1-7.533-3.037,7.1,7.1,0,0,1-2.5-5.827,7.739,7.739,0,0,1,1.437-4.6,9.315,9.315,0,0,1,4.078-3.143,15.6,15.6,0,0,1,6.137-1.123,14.712,14.712,0,0,1,6.347,1.269,10.85,10.85,0,0,1,4.12,3.163,6.712,6.712,0,0,1,1.519,3.725.916.916,0,0,1-.251.645.811.811,0,0,1-.623.27H478.6a1.605,1.605,0,0,1-1.415-.749,2.562,2.562,0,0,0-1.29-1.477,5.07,5.07,0,0,0-2.58-.6,4.928,4.928,0,0,0-2.7.625,2.045,2.045,0,0,0-.957,1.83,2.1,2.1,0,0,0,1.249,1.893,18.837,18.837,0,0,0,4.661,1.395,26.615,26.615,0,0,1,6.221,1.769,7.843,7.843,0,0,1,3.414,2.747,7.648,7.648,0,0,1,1.1,4.265,7.747,7.747,0,0,1-1.622,4.911,10.146,10.146,0,0,1-4.495,3.183,18.245,18.245,0,0,1-6.576,1.1A18.043,18.043,0,0,1,466.743,1735.175Z" transform="translate(-14.12 -1706.377)"></path>
            <path id="Path_4332" data-name="Path 4332" d="M494.812,1735.626a1,1,0,0,1-.312-.729v-27.009a1.089,1.089,0,0,1,.291-.77.978.978,0,0,1,.749-.313h19.643a1.066,1.066,0,0,1,1.082,1.083v4.119a.976.976,0,0,1-.312.749,1.084,1.084,0,0,1-.77.291H502.033v5.286h12.235a1.066,1.066,0,0,1,1.082,1.082v3.787a1.065,1.065,0,0,1-1.082,1.082H502.033v5.41h13.484a1.064,1.064,0,0,1,1.082,1.082v4.12a.976.976,0,0,1-.312.749,1.086,1.086,0,0,1-.77.291H495.54A1,1,0,0,1,494.812,1735.626Z" transform="translate(-15.199 -1706.391)"></path>
          </g>
        </g>
      </g>
    </g>
  </g>
</svg>
