<?xml version="1.0" encoding="UTF-8"?>
<svg xmlns="http://www.w3.org/2000/svg" width="531.088" height="313.622" viewBox="0 0 531.088 313.622">
  <g id="Group_3441" data-name="Group 3441" transform="translate(-139.576 -37.147)">
    <g id="Group_3252" data-name="Group 3252" transform="translate(296 37.147)" opacity="0.864" style="mix-blend-mode: multiply;isolation: isolate">
      <path id="Path_22" data-name="Path 22" d="M434.482,374.975c2.044,6.457,6.067,11.193,10.284,15.8,4.769,4.316,9.636,8.468,16.385,10.479.42.163.908.26,1.362.389-1.719-7.43-5.969-13.043-10.771-17.843s-10.415-9.052-17.844-10.772A16.978,16.978,0,0,0,434.482,374.975Z" transform="translate(-240.654 -214.731)" fill="none"></path>
      <path id="Path_23" data-name="Path 23" d="M420.239,399.961l-.583-.584a8.766,8.766,0,0,1-.746-.811l-.293-.292a90.724,90.724,0,0,1-13.463-18.981c-.908.519-1.85.941-2.823,1.4a74.136,74.136,0,0,1-30.659,6.716c-46.59,0-81.467-44.156-72.091-89.351a59.563,59.563,0,0,1,6.911-17.553l.032-.032a63.811,63.811,0,0,1-5.97-3.373,98.6,98.6,0,0,1-13.4-10.349c-.421-.357-.811-.746-1.2-1.071l-.583-.584a8.911,8.911,0,0,1-.747-.811l-.291-.292a94.236,94.236,0,0,1-10.285-13.465,119.113,119.113,0,0,0-10.739,20.927c-16.645,42.988-5.742,91.524,26.214,124.325,37.376,36.467,94.932,44.773,140.451,18.4,1.265-.746,2.952-1.719,4.866-2.79a98.529,98.529,0,0,1-13.4-10.349C421.017,400.674,420.628,400.285,420.239,399.961Z" transform="translate(-231.213 -208.245)" fill="none"></path>
      <path id="Path_24" data-name="Path 24" d="M413.8,445.182c5.282-2.365,8.592-3.618,10.884-4.48l12.718-7.224,25.558-17.96-23.341-2.913a67.837,67.837,0,0,1-6.143-3.472c-1.914,1.071-3.6,2.044-4.866,2.79-45.519,26.377-103.075,18.072-140.451-18.4C256.2,360.727,245.3,312.191,261.946,269.2a119.112,119.112,0,0,1,10.739-20.927c-1.136-1.784-2.206-3.633-3.179-5.515-5.321-10.512-7.332-22,1.1-30.5l.032-.033c.455-.455.941-.876,1.46-1.33a21.451,21.451,0,0,1,4.25-2.823,8.9,8.9,0,0,0-1.493.714c-10.641,6.035-19.5,20.537-25.63,30.757-32.769,54.96-22.841,125.493,21.218,171.045l.682.681C308.889,447.8,363.958,461.387,413.8,445.182Z" transform="translate(-229.851 -205.998)" fill="#f4ae45"></path>
      <path id="Path_25" data-name="Path 25" d="M308.9,282.143l-.032.032a59.564,59.564,0,0,0-6.911,17.553c-9.376,45.194,25.5,89.351,72.091,89.351a74.136,74.136,0,0,0,30.659-6.716c.974-.454,1.915-.876,2.823-1.4-5.321-10.512-7.333-22,1.1-30.5-1.135,1.006-2.335,2.012-3.568,3.05a49.073,49.073,0,0,1-18.557,9.409,49.645,49.645,0,0,1-38.154-5.645c-24.3-14.957-31.049-48.893-13.562-71.7.844-1.1,1.621-2.141,2.369-3.148C328.851,288.859,318.436,286.945,308.9,282.143Z" transform="translate(-233.588 -209.919)" fill="#f4ae45"></path>
      <path id="Path_26" data-name="Path 26" d="M483.27,389.976c-7.495-18.655-27.9-39.322-47.694-41.852C447.549,350.3,459.91,359.8,467.21,367.1,472.628,372.521,479.376,380.956,483.27,389.976Z" transform="translate(-240.743 -213.413)" fill="#f4ae45"></path>
      <path id="Path_27" data-name="Path 27" d="M413.257,384.437a90.727,90.727,0,0,0,13.463,18.981l.293.292a8.754,8.754,0,0,0,.746.811l.583.584c.389.324.778.713,1.2,1.07a98.527,98.527,0,0,0,13.4,10.349A67.819,67.819,0,0,0,449.085,420v-3.214h18.066V402.493h18.01a36.162,36.162,0,0,0-3.317-12.541c-3.893-9.02-10.642-17.455-16.06-22.873-7.3-7.3-19.661-16.805-31.634-18.979-6.456-1.136-12.847-.13-18.3,4.478-.519.454-1.006.875-1.46,1.33l-.032.032C405.924,362.439,407.937,373.924,413.257,384.437Zm37.148-1.978c4.8,4.8,9.052,10.414,10.771,17.843-.454-.129-.941-.226-1.362-.389-6.749-2.012-11.616-6.163-16.385-10.479-4.217-4.607-8.24-9.344-10.284-15.8a16.961,16.961,0,0,1-.584-1.946C439.991,373.406,445.6,377.656,450.405,382.458Z" transform="translate(-239.317 -213.389)" fill="#f4ae45"></path>
      <path id="Path_28" data-name="Path 28" d="M272.6,212.115l-.032.033c-8.434,8.5-6.423,19.985-1.1,30.5.974,1.882,2.044,3.73,3.179,5.515a94.241,94.241,0,0,0,10.285,13.465l.291.292a8.916,8.916,0,0,0,.747.811l.583.584c.39.325.779.714,1.2,1.071a98.6,98.6,0,0,0,13.4,10.349,63.788,63.788,0,0,0,5.97,3.373c9.539,4.8,19.954,6.716,28.259.292l.064-.064c.064-.064.194-.13.293-.227a20.144,20.144,0,0,0,1.751-1.557c7.949-7.949,6.975-18.525,2.564-28.389-.13-.259-.227-.486-.357-.746a27,27,0,0,0-1.233-2.595A80.238,80.238,0,0,0,326.1,227.46c-.714-.778-1.428-1.492-2.109-2.173-.454-.455-.94-.94-1.46-1.4-.454-.454-.973-.973-1.492-1.427-.779-.649-1.558-1.363-2.336-2.012-7.2-6.164-16.9-12.426-26.344-14.145a22.961,22.961,0,0,0-11.225.583,5.263,5.263,0,0,0-1.2.422,6.8,6.8,0,0,0-1.038.389c-.2.065-.389.2-.584.259a21.451,21.451,0,0,0-4.25,2.823C273.54,211.239,273.053,211.66,272.6,212.115Zm46.785,46.4c-.454-.13-.94-.227-1.362-.39a2.1,2.1,0,0,1-.487-.162c-6.522-2.044-11.225-6.1-15.9-10.317-4.217-4.607-8.24-9.345-10.284-15.8a2.323,2.323,0,0,1-.2-.714,6.884,6.884,0,0,1-.389-1.233c7.43,1.72,13.043,5.969,17.844,10.772S317.663,251.08,319.383,258.51Z" transform="translate(-231.81 -205.882)" fill="#f4ae45"></path>
      <path id="Path_29" data-name="Path 29" d="M414.363,353.919l-.032.032c-8.435,8.5-6.423,19.985-1.1,30.5.974,1.882,2.044,3.73,3.179,5.516a94.274,94.274,0,0,0,10.285,13.464l.291.292a8.666,8.666,0,0,0,.747.811l.584.584c.389.325.778.714,1.2,1.071a98.6,98.6,0,0,0,13.4,10.349,63.592,63.592,0,0,0,5.97,3.373c9.539,4.8,19.953,6.717,28.259.293l.064-.065c.065-.064.194-.129.293-.226a19.977,19.977,0,0,0,1.751-1.558c7.949-7.949,6.975-18.525,2.564-28.388-.13-.259-.227-.487-.357-.746a26.985,26.985,0,0,0-1.233-2.6,80.228,80.228,0,0,0-12.361-17.358c-.714-.778-1.427-1.493-2.109-2.173-.454-.455-.94-.941-1.46-1.395-.454-.455-.973-.974-1.492-1.428-.779-.649-1.558-1.362-2.336-2.011-7.2-6.165-16.9-12.426-26.344-14.146a22.973,22.973,0,0,0-11.225.584,5.305,5.305,0,0,0-1.2.421,6.807,6.807,0,0,0-1.038.389c-.194.065-.389.2-.584.26a21.447,21.447,0,0,0-4.25,2.822C415.3,353.043,414.817,353.464,414.363,353.919Zm46.785,46.394c-.454-.13-.94-.227-1.362-.389a2.146,2.146,0,0,1-.487-.163c-6.521-2.044-11.225-6.1-15.9-10.316-4.217-4.607-8.24-9.345-10.284-15.8a2.312,2.312,0,0,1-.2-.713,6.916,6.916,0,0,1-.389-1.233c7.43,1.719,13.043,5.969,17.844,10.771S459.428,392.883,461.147,400.313Z" transform="translate(-239.316 -213.389)" fill="#f4ae45"></path>
      <path id="Path_30" data-name="Path 30" d="M375.15,369.661c-5.865.735-13.682-3.217-22.658-8.076-7.324-3.964-17.338-4.358-17.338,24.28,0,22.828,1.225,32.138,16.532,32.582,26.544.768-2.416,75.129,20.47,75.581,25.9.511,2.689-78.2,16.511-79.688,16.059-1.731-1.174,56.686,23.922,55.885,24.844-.793,6.343-53.916,26.052-49.593,15.936,3.5-15.48,107.015,7.14,107.015,22.756,0-3.357-102.87,12.762-102.83,9.962.025,25.266,25.057,25.258-12.208,0-21.761-8.75-32.244-23.834-47.821-7.149-7.381-35.723-4.532-46.725-3.2C400.31,363.147,397.607,366.845,375.15,369.661Z" transform="translate(-235.426 -214.023)" fill="#f4ae45"></path>
      <path id="Path_31" data-name="Path 31" d="M401.946,417.455c-2.545-2.22-4.279-5.454-7.743-5.935-3.322-.46-5.272.316-8.188,1.757-1.464.723-.123,2.889,1.337,2.167,2.368-1.169,3.806-1.782,6.51-1.4,2.883.4,4.347,3.277,6.461,5.12C401.548,420.229,403.18,418.531,401.946,417.455Z" transform="translate(-238.086 -216.762)" fill="#fff" opacity="0.35"></path>
      <path id="Path_32" data-name="Path 32" d="M338.777,404.191c.419,3.351.2,7.029,2.461,9.7,2.172,2.556,4.143,3.275,7.278,4.142,1.574.436,2.015-2.072.446-2.507-2.545-.7-4.027-1.206-5.792-3.288-1.882-2.221-2.129-5.458-2.477-8.24C340.49,402.38,338.574,402.568,338.777,404.191Z" transform="translate(-235.617 -216.311)" fill="#fff" opacity="0.35"></path>
      <path id="Path_33" data-name="Path 33" d="M406.873,458.768a33.742,33.742,0,0,1-.456-7.091c.056-1.465-2.221-1.462-2.276,0a36.5,36.5,0,0,0,.537,7.7C404.929,460.814,407.123,460.2,406.873,458.768Z" transform="translate(-239.078 -218.837)" fill="#fff" opacity="0.35"></path>
      <path id="Path_34" data-name="Path 34" d="M427.106,442.075a43.292,43.292,0,0,1-.066,15.2c-.979,5.071-2.055,10.452-6.458,10.873-1.488.143-1.04,2.95.405,2.547,5-1.4,6.378-6.435,7.472-10.761,1.605-6.348,2.035-12.193.761-18.054C428.867,440.255,426.828,440.433,427.106,442.075Z" transform="translate(-239.901 -218.316)" fill="#fff" opacity="0.35"></path>
      <path id="Path_35" data-name="Path 35" d="M478.756,428.675c-2.544-2.22-4.279-5.454-7.743-5.934-3.321-.461-5.272.316-8.188,1.756-1.464.723-.123,2.889,1.337,2.168,2.368-1.17,3.807-1.783,6.51-1.4,2.883.4,4.347,3.277,6.461,5.121C478.358,431.45,479.99,429.752,478.756,428.675Z" transform="translate(-242.152 -217.356)" fill="#fff" opacity="0.35"></path>
      <path id="Path_36" data-name="Path 36" d="M435.279,351.458a16.257,16.257,0,0,0-13.494,4c-.958.909.484,2.367,1.442,1.458,7.541-7.147,18.355-2.422,24.944,3.473.979.876,2.444-.56,1.458-1.442C445.57,355.314,440.777,352.218,435.279,351.458Z" transform="translate(-239.996 -213.58)" fill="#fff" opacity="0.35"></path>
      <path id="Path_37" data-name="Path 37" d="M456.567,500.826c.682,5.2,1.656,9.5.714,15.125-1.182,7.06-2.148,9-4.493,11.1-1.964,1.76-.83,4.762.595,4.295,4.229-1.387,5.514-7.6,6.079-12.026a52.733,52.733,0,0,0-.781-18.693C458.329,499.006,456.35,499.174,456.567,500.826Z" transform="translate(-241.599 -221.427)" fill="#fff" opacity="0.35"></path>
      <path id="Path_38" data-name="Path 38" d="M369.733,466.9c-.682,5.2-1.656,9.5-.715,15.125,1.183,7.06,2.149,9,4.494,11.1,1.964,1.76.83,4.762-.595,4.294-4.229-1.387-5.514-7.6-6.079-12.025a52.737,52.737,0,0,1,.78-18.693C367.971,465.082,369.95,465.25,369.733,466.9Z" transform="translate(-237.078 -219.631)" fill="#fff" opacity="0.35"></path>
    </g>
    <g id="Group_3281" data-name="Group 3281" transform="translate(-672.939 -1286.074)">
      <g id="DISH_OUT" data-name="DISH OUT" transform="translate(890.065 1344.146)" style="isolation: isolate">
        <g id="Group_3279" data-name="Group 3279" style="isolation: isolate">
          <path id="Path_4066" data-name="Path 4066" d="M867,1399.506a1.9,1.9,0,0,1-.593-1.386v-51.366a2.065,2.065,0,0,1,.554-1.465,1.863,1.863,0,0,1,1.425-.595H889.2q11.712,0,18.206,5.581t6.805,16.029q.078,2.3.079,6.093t-.079,6.016q-.792,21.688-24.614,21.687H868.383A1.894,1.894,0,0,1,867,1399.506Zm22.2-11.279q4.989,0,7.361-2.374t2.533-7.6q.158-2.294.158-5.936t-.158-5.859q-.16-5.062-2.73-7.479t-7.558-2.415h-7.521v31.66Z" transform="translate(-866.404 -1343.905)"></path>
          <path id="Path_4067" data-name="Path 4067" d="M909.292,1399.506a1.9,1.9,0,0,1-.593-1.386v-51.447a1.871,1.871,0,0,1,.593-1.425,1.975,1.975,0,0,1,1.386-.554H922a1.9,1.9,0,0,1,1.979,1.979v51.447a1.961,1.961,0,0,1-.554,1.386,1.856,1.856,0,0,1-1.425.593H910.678A1.894,1.894,0,0,1,909.292,1399.506Z" transform="translate(-847.833 -1343.905)"></path>
          <path id="Path_4068" data-name="Path 4068" d="M938.425,1398.916a19.036,19.036,0,0,1-8.153-5.854,13.673,13.673,0,0,1-2.929-7.915,1.548,1.548,0,0,1,.514-1.189,1.742,1.742,0,0,1,1.227-.476h10.527a3.281,3.281,0,0,1,1.543.318,5.138,5.138,0,0,1,1.307,1.108,7.923,7.923,0,0,0,3.2,3.126,11.811,11.811,0,0,0,5.818,1.228,13.463,13.463,0,0,0,6.569-1.307,4,4,0,0,0,2.294-3.6,3.512,3.512,0,0,0-1.186-2.732,10.549,10.549,0,0,0-3.8-1.9q-2.61-.835-7.518-1.86-9.58-1.9-14.326-5.778t-4.749-11.081a14.723,14.723,0,0,1,2.73-8.747,17.763,17.763,0,0,1,7.757-5.975,29.636,29.636,0,0,1,11.674-2.137A28,28,0,0,1,963,1346.559a20.686,20.686,0,0,1,7.836,6.017,12.745,12.745,0,0,1,2.888,7.083,1.743,1.743,0,0,1-.473,1.226,1.543,1.543,0,0,1-1.187.515H960.982a3.048,3.048,0,0,1-2.691-1.425,4.889,4.889,0,0,0-2.453-2.81,9.663,9.663,0,0,0-4.909-1.147,9.389,9.389,0,0,0-5.143,1.187,3.891,3.891,0,0,0-1.82,3.483,3.983,3.983,0,0,0,2.375,3.6q2.374,1.306,8.865,2.652a50.664,50.664,0,0,1,11.832,3.365,14.934,14.934,0,0,1,6.492,5.223,14.559,14.559,0,0,1,2.1,8.112,14.734,14.734,0,0,1-3.087,9.34,19.334,19.334,0,0,1-8.548,6.057,34.741,34.741,0,0,1-12.505,2.1A34.281,34.281,0,0,1,938.425,1398.916Z" transform="translate(-839.647 -1344.146)"></path>
          <path id="Path_4069" data-name="Path 4069" d="M969.477,1399.547a1.926,1.926,0,0,1-.554-1.426v-51.366a2.065,2.065,0,0,1,.554-1.465,1.862,1.862,0,0,1,1.425-.595h10.844a2.028,2.028,0,0,1,2.058,2.059v18.757h18.678v-18.757a2.03,2.03,0,0,1,2.059-2.059H1015.3a2.03,2.03,0,0,1,2.06,2.059v51.366a1.861,1.861,0,0,1-.594,1.426,2.06,2.06,0,0,1-1.465.552H1004.54a2.062,2.062,0,0,1-1.465-.552,1.861,1.861,0,0,1-.594-1.426v-19.39H983.8v19.39a1.865,1.865,0,0,1-.593,1.426,2.07,2.07,0,0,1-1.465.552H970.9A1.921,1.921,0,0,1,969.477,1399.547Z" transform="translate(-821.39 -1343.905)"></path>
          <path id="Path_4070" data-name="Path 4070" d="M1032.866,1395.672q-6.491-5.464-6.886-16.069-.08-2.213-.079-6.8t.079-6.887q.317-10.448,6.926-16.108t17.69-5.658q11,0,17.61,5.658t6.925,16.108q.16,4.591.158,6.887,0,2.372-.158,6.8-.4,10.608-6.846,16.069t-17.689,5.461Q1039.355,1401.134,1032.866,1395.672Zm24.3-8.9q2.453-2.5,2.612-7.64.158-4.587.158-6.568t-.158-6.411q-.16-5.145-2.612-7.637a8.8,8.8,0,0,0-6.568-2.494,8.9,8.9,0,0,0-6.65,2.494q-2.455,2.491-2.612,7.637-.08,2.217-.079,6.411,0,4.274.079,6.568.158,5.148,2.612,7.64a8.908,8.908,0,0,0,6.65,2.492A8.806,8.806,0,0,0,1057.165,1386.769Z" transform="translate(-796.373 -1344.146)"></path>
          <path id="Path_4071" data-name="Path 4071" d="M1075.228,1395.431q-6.372-5.463-6.372-16.384v-32.293a2.065,2.065,0,0,1,.554-1.465,1.864,1.864,0,0,1,1.425-.595h10.845a2.028,2.028,0,0,1,2.057,2.059v32.133q0,4.911,2.334,7.361a10.283,10.283,0,0,0,13.378-.039q2.333-2.491,2.334-7.322v-32.133a2.028,2.028,0,0,1,2.058-2.059H1114.6a2.028,2.028,0,0,1,2.058,2.059v32.293q0,10.921-6.331,16.384t-17.493,5.461Q1081.6,1400.892,1075.228,1395.431Z" transform="translate(-777.512 -1343.905)"></path>
          <path id="Path_4072" data-name="Path 4072" d="M1125.917,1399.547a1.865,1.865,0,0,1-.593-1.426V1357.6H1111.4a2.052,2.052,0,0,1-1.465-.554,1.858,1.858,0,0,1-.594-1.425v-8.863a2.03,2.03,0,0,1,2.059-2.059h42.977a2.033,2.033,0,0,1,2.059,2.059v8.863a1.854,1.854,0,0,1-.6,1.425,2.053,2.053,0,0,1-1.464.554h-13.93v40.524a1.864,1.864,0,0,1-.593,1.426,2.062,2.062,0,0,1-1.465.552h-11A2.067,2.067,0,0,1,1125.917,1399.547Z" transform="translate(-759.738 -1343.905)"></path>
        </g>
      </g>
      <g id="THE_DELISH" data-name="THE DELISH" transform="translate(812.515 1419.827)" style="isolation: isolate">
        <g id="Group_3280" data-name="Group 3280" style="isolation: isolate">
          <path id="Path_4073" data-name="Path 4073" d="M844.188,1558.31l-1.337-2.9-7.138-115.542-1.784-10.262L825,1430.722,814.3,1426.26l-1.783-2.007v-1.784l12.49-5.353h2.008l11.153-2.677,31-2.008,3.346,2.008,2.677,1.115-1.338,6.245-6.246,3.346H856.456l-10.038,1.337,6.023,78.964v5.352l.892,7.808v3.569l.669,7.137v7.808l.892,4.014v8.03l.892,3.57v5.353l-3.346,1.56h-5.576Z" transform="translate(-812.515 -1404.846)"></path>
          <path id="Path_4074" data-name="Path 4074" d="M899.3,1561.32l-1.561-3.347,1.338-2.677-.892-.668v-8.7l-.669-1.786v-4.46l1.561-.669-.892-.894v-3.568l-1.561.892,2.008-4.461-2.008,1.115v-15.614l.892.892v-1.784l-.892-1.786v-7.583l4.238,3.569-4.238-5.353v-31.453l.892-1.56v-14.722H893.5l-15.391,2.675h-3.123v19.63l.892,7.138-.892,3.568v9.37l.892.892v8.03l.668,6.692v4.461l.894,6.022v3.568l.669,8.478-.669,1.337,1.561,3.792v9.816l-1.784,2.9-4.684,1.338-5.577-7.808-2.9-46.84V1497.3l-.892-13.831v-4.46l-.446-6.915-.446-61.564,3.792-.892,6.246,3.791,1.338,4.016.669,29.89,2.229.669,18.515-3.346h2.454v-10.708l1.561-21.635h4.684l2.23.892h1.561l3.123,3.569L910,1458.49l-.668,4.461v1.561l-.892.669.892.891-.892,2.678v44.165H906.88l.892,4.461v19.629l-2.9,4.461h1.338l.669-.894h.892l2.008,20.077-2.231,1.784H902.2Zm-33.012-69.149-.669,1.563.669-.669Zm33.458,58.218.892.894v-.894Zm2.454-10.705-.892,1.785.892-.894Zm0,12.491v-1.786l-.446-.891Z" transform="translate(-790.669 -1406.071)"></path>
          <path id="Path_4075" data-name="Path 4075" d="M903.664,1556.084l-.892-8.03v-12.268H902.1v-1.56l.669-.9v-4.238h1.561v-1.338l-2.231,1.338v-2.454l1.338-3.123-1.338-1.338v-5.352l.892-.892-.892-2.453v-46.842h1.561v-.892H902.1V1453.7l.669-.894v-17.174l.892-1.784v-22.083l3.569-1.338,3.567,1.115,2.455-1.115,10.707-1.563h12.045l4.461.894h2.23l4.684,2.454v5.13l-4.684,2.675h-8.03l-12.268.894h-5.13l-1.338,1.785-1.338,42.827,9.368-1.115h8.253l3.123,1.338v5.353l-2.9,3.346-8.476.892H919.5l-6.692,2.229,2.008,68.7.892,1.784,2.9-.894h9.815l14.052-.891,3.346.891,1.561,1.785-.892,3.57-4.461,4.907-8.253.891h-7.584l-18.068,1.563Z" transform="translate(-773.18 -1406.411)"></path>
          <path id="Path_4076" data-name="Path 4076" d="M991.2,1560.662l-4.461-4.907v-20.521l-.668-1.337-.669-16.731-.892-9.592v-29l-.669-.669v-3.121L985.4,1473v-2.229l-2.232-.669v-60.672h8.03l3.123-1.338,7.808,2.677,15.168,8.7,12.044,15.391,5.13,15.614,3.347,17.4-1.117,23.2-5.129,26.767-7.138,20.966-8.922,13.162-12.939,10.485-5.8.222Zm5.132-18.96-1.117,1.337.669.448L997,1542.37Zm2.229-.892v10.259h1.561l5.353-4.907,8.253-10.259,5.576-20.521,1.338-1.561v-4.461l2.9-24.313v-21.413l-2.9-14.276-4.461-12.714-8.922-11.377-4.238-1.784-6.69-3.792-.894,3.57L997,1504.452l-.668,1.785.892,1.338Zm28.774-69.148-.892.668.892.669Zm2.007,47.065-.669.892.669.669Z" transform="translate(-737.586 -1406.751)"></path>
          <path id="Path_4077" data-name="Path 4077" d="M1028.9,1556.084l-.891-8.03v-12.268h-.671v-1.56l.671-.9v-4.238h1.561v-1.338l-2.232,1.338v-2.454l1.34-3.123-1.34-1.338v-5.352l.892-.892-.892-2.453v-46.842h1.561v-.892h-1.561V1453.7l.671-.894v-17.174l.891-1.784v-22.083l3.569-1.338,3.569,1.115,2.454-1.115,10.707-1.563h12.045l4.461.894h2.23l4.686,2.454v5.13l-4.686,2.675h-8.029l-12.27.894h-5.13l-1.338,1.785-1.337,42.827,9.367-1.115h8.254l3.123,1.338v5.353l-2.9,3.346-8.476.892h-4.46l-6.693,2.229,2.007,68.7.892,1.784,2.9-.894h9.813l14.054-.891,3.346.891,1.561,1.785-.892,3.57-4.463,4.907-8.252.891h-7.585l-18.068,1.563Z" transform="translate(-718.191 -1406.411)"></path>
          <path id="Path_4078" data-name="Path 4078" d="M1075.047,1561.515l-4.461-4.461,1.338-5.129-1.115-3.123v-2.232l-.892-2.9,2.454-5.353-1.561,1.337-.446-.668v-2.677l1.338-.894.669.894v-1.563l-2.007-.891v-1.784l-.892-1.338.892-1.563-.892-.669V1523.6l1.339-4.237-1.339,1.561-1.115-2.454,1.115-2.677-.446-2.9-.892-.448,1.115-2.453-1.561-1.56,1.784-3.792-.446-.669v-4.238l1.785-1.338h-1.785v-7.807l-.892-.669v-6.469l-.669-1.784V1480.1l-1.784-5.13.446-3.123-.892-1.562.892-3.568h-.892V1454l.892-.448-1.338-1.337,1.338-.892-1.338-1.115,1.338-2.232v-.891l-1.338.891v-7.137l-1.561-17.623v-9.813l-1.786-5.13,1.117-1.117h7.807l3.569,1.785,2.675,9.593v49.073l1.34,8.251v2.9l.892,2.008v6.913l.446,2.232v7.138l-1.117,3.567,1.117,1.117v2.231l-.446.669,1.784,32.119,1.785,15.391,2.007.894h17.4v4.24l-4.015,4.014-16.729.894Zm-6.915-101.714.892.669V1456.9l-.892.892Zm1.338,46.175v.891l1.785-.669.446.669v-.891l-.892-2.9.446,2.9Zm2.231,9.145-.892.669h1.561Zm1.339-40.6,1.561.669.446-.669Zm1.561,75.838.446-.891-.446-1.338-1.561-.669v6.246Z" transform="translate(-703.218 -1407.16)"></path>
          <path id="Path_4079" data-name="Path 4079" d="M1098.816,1556.066l-2.675-3.347.892-8.478v-25.65h-1.34l1.34-20.075.892-.894.446.894v-4.461l-1.338,1.783v-5.352l-.892-8.7h1.784v-2.678l-.892-.891v-2.677l.892-1.339-.892-1.34.892-2.675-.892-.892-1.34-59.11,1.34-1.786h2.9l2.007,2.678h1.338l.892,2.677,1.114-.892v8.922l.894-1.785,2.007,9.146v9.369l-.669.891,1.338,1.786v22.083l-.669.891v66.026l-.669,3.344v6.471l-.671,1.56h1.34v13.828l-4.238,3.347Zm-.891-91.233v2.009h1.115v-2.009Zm1.115,5.355-.669,1.784h1.562l.669-1.784Z" transform="translate(-688.178 -1406.616)"></path>
          <path id="Path_4080" data-name="Path 4080" d="M1119.291,1556.226l-2.453-2.454-.668-3.792-2.23-1.115v-24.313l2.9-2.9,2.9-1.561,1.34-1.117.892,1.117h2.231l1.784,3.792-.892,2.23-.892,13.829,1.784,8.921,4.237,4.016h5.132l2.229-2.454,1.338-.448.671-2.454,2.23-4.46,1.114-18.515-1.338-15.167-3.346-10.707-27.213-57.995v-12.268l2.453-7.807,2.678-2.9,4.46-2.232,4.015-3.121,8.255-1.786,14.274,4.907,6.693,7.139,1.339,5.577-2.231,4.907-.669-.669-3.57,1.785-3.791-2.677-2.454-6.246-4.24-2.9-8.922-2.9-3.568,5.576v1.115l-1.562,5.353v11.376l9.592,18.96,1.561,2.454,16.5,35.689,3.347,14.051v15.839l-.894,1.56v9.147l-2.677,9.814-6.69,6.915-6.024,3.121h-10.261Z" transform="translate(-681.441 -1405.663)"></path>
          <path id="Path_4081" data-name="Path 4081" d="M1184.954,1561.32l-1.561-3.347,1.338-2.677-.892-.668v-8.7l-.669-1.786v-4.46l1.561-.669-.892-.894v-3.568l-1.561.892,2.007-4.461-2.007,1.115v-15.614l.892.892v-1.784l-.892-1.786v-7.583l4.238,3.569-4.238-5.353v-31.453l.892-1.56v-14.722h-4.015l-15.39,2.675h-3.124v19.63l.892,7.138-.892,3.568v9.37l.892.892v8.03l.669,6.692v4.461l.892,6.022v3.568l.67,8.478-.67,1.337,1.561,3.792v9.816l-1.783,2.9-4.684,1.338-5.577-7.808-2.9-46.84V1497.3l-.892-13.831v-4.46l-.446-6.915-.446-61.564,3.793-.892,6.244,3.791,1.339,4.016.669,29.89,2.231.669,18.514-3.346h2.454v-10.708l1.561-21.635h4.684l2.232.892h1.561l3.123,3.569-.671,41.712-.669,4.461v1.561l-.892.669.892.891-.892,2.678v44.165h-1.561l.892,4.461v19.629l-2.9,4.461h1.338l.669-.894h.892l2.007,20.077-2.229,1.784h-5.355Zm-33.012-69.149-.669,1.563.669-.669Zm33.458,58.218.892.894v-.894Zm2.454-10.705-.892,1.785.892-.894Zm0,12.491v-1.786l-.446-.891Z" transform="translate(-665.244 -1406.071)"></path>
        </g>
      </g>
    </g>
  </g>
</svg>
