<?xml version="1.0" encoding="UTF-8"?>
<svg xmlns="http://www.w3.org/2000/svg" width="698.38" height="134.2" viewBox="0 0 698.38 134.2">
  <g id="Group_3473" data-name="Group 3473" transform="translate(-382 -777.456)">
    <text id="Our_Happiness" data-name="Our Happiness" transform="translate(728 874)" fill="#272727" font-size="72" font-family="FoodTruckChalkboard-Regular" letter-spacing="0.026em">
      <tspan x="-190.022" y="0">Dish out the delish!</tspan>
    </text>
    <path id="Path_1506" data-name="Path 1506" d="M176.038,440.821a13.417,13.417,0,0,0-1.23-4.652,29.269,29.269,0,0,0-5.956-8.483c-2.708-2.707-7.292-6.232-11.732-7.038a7.946,7.946,0,0,0-6.786,1.66c-.193.169-.373.325-.542.494l-.012.012h0c-.421.373-.866.746-1.323,1.131a18.211,18.211,0,0,1-6.883,3.489,18.261,18.261,0,0,1-19.179-28.685c.312-.409.6-.794.878-1.168l.024-.023c.024-.024.072-.049.108-.085a7.293,7.293,0,0,0,.65-.577c2.948-2.948,2.587-6.871.951-10.529-.049-.1-.085-.18-.133-.276a10.064,10.064,0,0,0-.457-.963,29.723,29.723,0,0,0-4.584-6.437c-.265-.289-.53-.554-.782-.807-.169-.168-.349-.348-.542-.517-.168-.168-.361-.361-.553-.529-.289-.241-.578-.506-.867-.746-2.671-2.286-6.269-4.609-9.77-5.246a8.514,8.514,0,0,0-4.163.216,1.9,1.9,0,0,0-.445.157,2.521,2.521,0,0,0-.386.144c-.072.024-.144.072-.216.1a3.383,3.383,0,0,0-.554.265c-3.946,2.238-7.231,7.617-9.5,11.407-12.153,20.383-8.471,46.541,7.869,63.434l.253.253a52.9,52.9,0,0,0,52.912,12.575l-.006.011c1.882-.572,2.882.083,2.882,1.479l.435-2.234-.435,2.234v12.944a3.35,3.35,0,0,0,6.7,0v-5.649a3.35,3.35,0,1,1,6.7,0v15.816a3.35,3.35,0,1,0,6.7,0V440.821Zm-62.692-57.233a13.708,13.708,0,0,1,4,6.618c-.169-.048-.349-.084-.505-.145a.785.785,0,0,1-.181-.06,15.891,15.891,0,0,1-5.9-3.826,15.725,15.725,0,0,1-3.814-5.86.85.85,0,0,1-.072-.265,2.521,2.521,0,0,1-.145-.457A13.708,13.708,0,0,1,113.346,383.588Zm43.188,73.245c.141-.038.224-.054.224-.054h0S156.675,456.8,156.534,456.833Zm2.042-9.774c-16.882,9.782-38.227,6.7-52.088-6.822a43.644,43.644,0,0,1-9.722-46.109,44.148,44.148,0,0,1,3.982-7.761,34.937,34.937,0,0,0,3.814,4.994l.109.108a3.153,3.153,0,0,0,.276.3l.217.217c.145.12.289.264.445.4a36.577,36.577,0,0,0,4.97,3.838,23.516,23.516,0,0,0,2.214,1.251l-.012.012a22.085,22.085,0,0,0-2.563,6.51c-3.478,16.761,9.457,33.137,26.736,33.137a27.483,27.483,0,0,0,11.37-2.491c.361-.168.71-.325,1.047-.517a14.169,14.169,0,0,1-1.708-5.935,14.169,14.169,0,0,0,1.708,5.935,33.673,33.673,0,0,0,4.993,7.039l.109.108a3.153,3.153,0,0,0,.276.3l.217.217c.145.12.289.264.445.4a36.577,36.577,0,0,0,4.97,3.838C159.671,446.421,159.045,446.782,158.576,447.059Zm8.062-7.2a16.843,16.843,0,0,1-9.891-9.746,6.552,6.552,0,0,1-.217-.722,16.11,16.11,0,0,1,10.613,10.613C166.975,439.96,166.794,439.924,166.638,439.863Z" transform="translate(297.137 424.312)" fill="#fffae6"></path>
    <g id="Group_3289" data-name="Group 3289" transform="translate(984 781.456)">
      <g id="Group_3287" data-name="Group 3287" transform="translate(-12.146 13.233)">
        <path id="Path_4101" data-name="Path 4101" d="M825.617,154.222c-2.337-1.047-3.8-1.6-4.815-1.982l-5.627-3.2L803.868,141.1l10.327-1.288a30.119,30.119,0,0,0,2.718-1.536c.847.473,1.593.9,2.153,1.234,20.139,11.67,45.6,7.995,62.138-8.139a52.065,52.065,0,0,0,11.6-55,52.7,52.7,0,0,0-4.751-9.258c.5-.79.976-1.608,1.406-2.44,2.354-4.651,3.244-9.732-.488-13.493l-.015-.014c-.2-.2-.416-.388-.646-.589a9.493,9.493,0,0,0-1.88-1.249,3.969,3.969,0,0,1,.66.316c4.708,2.67,8.626,9.086,11.339,13.608,14.5,24.315,10.105,55.521-9.388,75.673l-.3.3C872.032,155.382,847.668,161.391,825.617,154.222Z" transform="translate(-798.473 -48.402)" fill="#fff"></path>
        <path id="Path_4102" data-name="Path 4102" d="M918.563,123.386l.014.015a26.355,26.355,0,0,1,3.057,7.765c4.148,20-11.282,39.531-31.894,39.531a32.792,32.792,0,0,1-13.564-2.971c-.431-.2-.847-.388-1.249-.617,2.354-4.651,3.244-9.732-.488-13.493.5.445,1.033.89,1.579,1.349a21.7,21.7,0,0,0,8.21,4.162,21.962,21.962,0,0,0,16.88-2.5c10.751-6.617,13.737-21.632,6-31.722-.373-.488-.718-.947-1.048-1.392C909.735,126.358,914.343,125.511,918.563,123.386Z" transform="translate(-843.355 -91.433)" fill="#fff"></path>
        <path id="Path_4103" data-name="Path 4103" d="M872.2,49.883l.015.014c3.732,3.76,2.842,8.842.488,13.493-.431.833-.9,1.65-1.407,2.44a41.722,41.722,0,0,1-4.55,5.957l-.129.129a3.884,3.884,0,0,1-.33.359l-.259.259c-.172.143-.344.316-.531.473a43.621,43.621,0,0,1-5.928,4.579,28.023,28.023,0,0,1-2.641,1.492c-4.22,2.125-8.828,2.972-12.5.129l-.029-.028c-.028-.028-.086-.057-.129-.1a8.855,8.855,0,0,1-.775-.689c-3.517-3.516-3.086-8.2-1.134-12.559.057-.115.1-.215.158-.33a11.859,11.859,0,0,1,.546-1.148,35.506,35.506,0,0,1,5.469-7.679c.316-.344.631-.66.933-.962.2-.2.416-.416.646-.617.2-.2.43-.43.66-.631.344-.287.689-.6,1.034-.89,3.186-2.727,7.478-5.5,11.655-6.258a10.158,10.158,0,0,1,4.966.258,2.327,2.327,0,0,1,.531.187,3.052,3.052,0,0,1,.459.172c.086.029.172.086.259.115a9.49,9.49,0,0,1,1.88,1.249C871.785,49.5,872,49.682,872.2,49.883ZM851.5,70.409c.2-.057.416-.1.6-.172a.929.929,0,0,0,.215-.072c2.885-.9,4.966-2.7,7.034-4.565a18.752,18.752,0,0,0,4.55-6.991,1.027,1.027,0,0,0,.086-.316,3.056,3.056,0,0,0,.172-.546,16.351,16.351,0,0,0-7.895,4.765A16.351,16.351,0,0,0,851.5,70.409Z" transform="translate(-781.72 -47.126)" fill="#fff"></path>
        <path id="Path_4104" data-name="Path 4104" d="M1013.365,191.047l.014.014c3.732,3.761,2.842,8.842.488,13.493-.431.833-.9,1.65-1.407,2.44a41.744,41.744,0,0,1-4.55,5.957l-.129.129a3.822,3.822,0,0,1-.331.359l-.258.259c-.172.144-.345.316-.531.474a43.626,43.626,0,0,1-5.928,4.579,28.13,28.13,0,0,1-2.641,1.492c-4.22,2.125-8.827,2.972-12.5.129l-.029-.029c-.029-.029-.086-.057-.129-.1a8.85,8.85,0,0,1-.775-.689c-3.517-3.517-3.086-8.2-1.134-12.56.057-.114.1-.215.158-.33a11.96,11.96,0,0,1,.546-1.148,35.512,35.512,0,0,1,5.469-7.679c.316-.344.632-.66.933-.962.2-.2.416-.416.646-.617.2-.2.43-.431.66-.632.344-.287.689-.6,1.033-.89,3.186-2.728,7.479-5.5,11.656-6.259a10.162,10.162,0,0,1,4.966.259,2.349,2.349,0,0,1,.531.186,3.01,3.01,0,0,1,.459.172c.086.029.172.086.258.115a9.491,9.491,0,0,1,1.88,1.249C1012.949,190.659,1013.164,190.846,1013.365,191.047Zm-20.7,20.526c.2-.057.416-.1.6-.172a.96.96,0,0,0,.216-.072c2.885-.9,4.966-2.7,7.033-4.564a18.759,18.759,0,0,0,4.55-6.991,1.036,1.036,0,0,0,.086-.316,3.039,3.039,0,0,0,.172-.546,19.216,19.216,0,0,0-12.66,12.66Z" transform="translate(-982.031 -129.142)" fill="#fff"></path>
      </g>
      <g id="Group_3288" data-name="Group 3288" transform="translate(-36 -4)">
        <path id="Path_4105" data-name="Path 4105" d="M1017.139,71.544c1.118-.5,1.818-.766,2.3-.948l2.692-1.529,5.408-3.8-4.94-.616a14.311,14.311,0,0,1-1.3-.735c-.405.227-.762.432-1.03.59A24.61,24.61,0,0,1,985,34.3a25.177,25.177,0,0,1,2.273-4.428c-.24-.378-.467-.769-.673-1.167-1.126-2.225-1.552-4.655.233-6.454l.007-.007c.1-.1.2-.185.309-.282a4.536,4.536,0,0,1,.9-.6,1.913,1.913,0,0,0-.316.151c-2.252,1.277-4.126,4.346-5.424,6.509a30.145,30.145,0,0,0,4.49,36.2l.144.144A30.187,30.187,0,0,0,1017.139,71.544Z" transform="translate(-978.211 -20.928)" fill="#fff"></path>
        <path id="Path_4106" data-name="Path 4106" d="M1009.332,56.795l-.007.007a12.609,12.609,0,0,0-1.463,3.714A15.6,15.6,0,0,0,1029.608,78c.206-.1.4-.185.6-.295-1.126-2.225-1.552-4.655.233-6.454-.24.212-.494.425-.755.645a10.387,10.387,0,0,1-3.927,1.991,10.42,10.42,0,0,1-10.944-16.369c.179-.233.343-.453.5-.666C1013.555,58.217,1011.351,57.811,1009.332,56.795Z" transform="translate(-993.395 -41.511)" fill="#fff"></path>
        <path id="Path_4107" data-name="Path 4107" d="M1041.1,21.355a4.537,4.537,0,0,1,.9-.6c.041-.014.083-.041.124-.055a1.42,1.42,0,0,1,.22-.083,1.119,1.119,0,0,1,.254-.089,4.859,4.859,0,0,1,2.375-.124,12.87,12.87,0,0,1,5.575,2.994c.165.137.33.288.494.425.11.1.22.206.316.3s.213.2.309.3c.144.144.3.3.446.46a16.993,16.993,0,0,1,2.616,3.673,5.713,5.713,0,0,1,.261.549c.028.055.048.1.075.158.934,2.087,1.14,4.325-.542,6.008a4.264,4.264,0,0,1-.371.33c-.021.021-.048.034-.062.048l-.014.014c-1.758,1.36-3.962.954-5.98-.062a13.4,13.4,0,0,1-1.263-.714A20.829,20.829,0,0,1,1044,32.7c-.089-.075-.171-.158-.254-.227l-.124-.124a1.913,1.913,0,0,1-.158-.171l-.062-.062a19.944,19.944,0,0,1-2.177-2.849c-.24-.378-.467-.769-.673-1.167-1.126-2.225-1.552-4.655.233-6.454l.007-.007C1040.887,21.54,1040.991,21.451,1041.1,21.355Zm7.312,6.323a7.821,7.821,0,0,0-3.776-2.279,1.445,1.445,0,0,0,.083.261.486.486,0,0,0,.041.151,9.633,9.633,0,0,0,5.541,5.527.446.446,0,0,0,.1.034c.089.034.192.055.288.083A7.82,7.82,0,0,0,1048.413,27.678Z" transform="translate(-1032.16 -20.317)" fill="#fff"></path>
        <path id="Path_4108" data-name="Path 4108" d="M973.577,88.878a4.536,4.536,0,0,1,.9-.6c.041-.014.083-.041.124-.055a1.42,1.42,0,0,1,.22-.083,1.119,1.119,0,0,1,.254-.089,4.859,4.859,0,0,1,2.375-.124,12.87,12.87,0,0,1,5.575,2.994c.165.137.33.288.495.425.11.1.219.206.316.3s.213.2.309.3c.144.144.3.3.446.46a16.989,16.989,0,0,1,2.616,3.673,5.714,5.714,0,0,1,.261.549c.028.055.048.1.076.158.934,2.087,1.139,4.325-.543,6.008a4.265,4.265,0,0,1-.371.33c-.021.021-.048.034-.062.048l-.014.014c-1.758,1.36-3.962.954-5.98-.062a13.4,13.4,0,0,1-1.263-.714,20.83,20.83,0,0,1-2.836-2.19c-.089-.075-.171-.158-.254-.227l-.124-.124a1.9,1.9,0,0,1-.158-.171l-.062-.062a19.944,19.944,0,0,1-2.177-2.849c-.24-.378-.467-.769-.673-1.167-1.126-2.225-1.552-4.655.233-6.454l.007-.007C973.364,89.063,973.468,88.974,973.577,88.878ZM980.89,95.2a7.821,7.821,0,0,0-3.776-2.279,1.44,1.44,0,0,0,.083.261.485.485,0,0,0,.041.151,9.633,9.633,0,0,0,5.541,5.527.445.445,0,0,0,.1.034c.089.034.192.055.288.083A7.82,7.82,0,0,0,980.89,95.2Z" transform="translate(-936.345 -59.548)" fill="#fff"></path>
      </g>
    </g>
  </g>
</svg>
