<?xml version="1.0" encoding="UTF-8"?>
<svg xmlns="http://www.w3.org/2000/svg" width="234.446" height="160.399" viewBox="0 0 234.446 160.399">
  <g id="Layer_1" transform="translate(-5.5 0.061)">
    <g id="Group_3394" data-name="Group 3394" transform="translate(5.5 -0.061)">
      <g id="Group_3392" data-name="Group 3392">
        <path id="Path_4249" data-name="Path 4249" d="M5.5-.061H239.946V116S138.01,156.373,129.921,159.321a16.558,16.558,0,0,1-12.956-.617L5.5,116Z" transform="translate(-5.5 0.061)" fill="#fff"></path>
      </g>
      <g id="Group_3393" data-name="Group 3393">
        <path id="Path_4250" data-name="Path 4250" d="M5.5-.061H239.946V110.032S138.01,150.752,129.921,153.7a16.22,16.22,0,0,1-12.956-.617L5.5,110.032Z" transform="translate(-5.5 0.061)" fill="#002f87"></path>
      </g>
    </g>
    <path id="Path_4251" data-name="Path 4251" d="M188.756,51.347l-81.85-1.782c-2.125,1.782-4.045,3.428-5.21,4.387l87.06-1.851a.324.324,0,0,0,.343-.343c0-.274-.137-.411-.343-.411" transform="translate(11.704 6.038)" fill="#d02c2f"></path>
    <path id="Path_4252" data-name="Path 4252" d="M73.262,49.809,39.946,51.317a.343.343,0,1,0,0,.686l37.84,1.714c-1.028-.823-2.674-2.262-4.524-3.907" transform="translate(4.149 6.068)" fill="#d02c2f"></path>
    <path id="Path_4253" data-name="Path 4253" d="M101.4,67.058s-3.016-12.888-3.153-13.436c.411-.343,10.557-8.843,10.557-8.843s-13.162-1.1-13.71-1.165c-.206-.548-5.141-12.751-5.141-12.751S84.81,43.065,84.6,43.545c-.548.069-13.71.96-13.71.96s10.008,8.637,10.42,8.98c-.137.548-3.359,13.368-3.359,13.368S89.266,60,89.746,59.723c.411.343,11.654,7.335,11.654,7.335" transform="translate(7.956 3.763)" fill="#ffc629"></path>
    <path id="Path_4254" data-name="Path 4254" d="M87.838,33.125,87.7,50.605,92.362,44.3Z" transform="translate(10.001 4.038)" fill="#fff"></path>
    <path id="Path_4255" data-name="Path 4255" d="M73.033,43.65l16.452,5.758-4.456-6.444Z" transform="translate(8.217 5.235)" fill="#fff"></path>
    <path id="Path_4256" data-name="Path 4256" d="M78.594,62.838l10.214-14.19-7.4,2.468Z" transform="translate(8.893 5.926)" fill="#fff"></path>
    <path id="Path_4257" data-name="Path 4257" d="M97.854,62.838,87.708,48.648l-.069,7.815Z" transform="translate(9.994 5.926)" fill="#fff"></path>
    <path id="Path_4258" data-name="Path 4258" d="M104.359,44.064,87.7,49.274l7.4,2.468Z" transform="translate(10.001 5.369)" fill="#fff"></path>
    <path id="Path_4259" data-name="Path 4259" d="M172.174,72.553v-3.5H156.75v33.727h15.424V99.768h-10.42V87.429h7.815V84.481h-7.815V72.553Zm12.134,15.7-1.234-2.125v16.658h-4.936V69.057h7.609c3.222,0,5.69.548,7.2,1.714,1.988,1.508,2.879,4.113,2.879,8.295,0,5.758-4.387,8.432-5.9,8.706l-.891.137.48.823,8.021,14.122h-4.867Zm-.548-3.359a8.64,8.64,0,0,0,5.553-1.714c1.165-.96,1.714-2.6,1.714-4.8a7.594,7.594,0,0,0-.274-2.125l-.069-.206a3.186,3.186,0,0,0-1.028-1.714l-.137-.137a5.408,5.408,0,0,0-1.988-1.234,8.339,8.339,0,0,0-2.742-.343h-1.714V84.893ZM145.37,102.785h4.524V69.057h-5l.069,22.142v2.948l-1.234-2.674L133.442,69.057h-4.936v33.727h5.073l-.137-21.936V77.969l1.234,2.6Zm-54.773,0h4.73v-33.8H90.6ZM73.391,85.372l.274-.411L85.182,68.989H80.726L71.266,82.7,70.1,84.413V68.92h-4.73v33.864H70.1l-.069-13.573V87.086L71.2,88.8l9.46,13.916H85.8L73.6,85.647Zm45.038,17.412h4.524V69.057h-5l.069,22.142v2.948l-1.234-2.674L106.5,69.057h-4.936v33.727h5.073L106.5,80.848V77.969l1.234,2.6ZM41.858,96.066a14.464,14.464,0,0,0,3.359,2.262,10.833,10.833,0,0,0,4.456.96A6.918,6.918,0,0,0,54.2,97.78a5.479,5.479,0,0,0,1.782-4.319,5.874,5.874,0,0,0-.617-2.811,5.233,5.233,0,0,0-2.057-1.988,23.721,23.721,0,0,0-3.839-1.714,16.4,16.4,0,0,1-6.787-3.976,9.827,9.827,0,0,1-.754-10.694,8.457,8.457,0,0,1,3.428-3.153,11.272,11.272,0,0,1,5.073-1.165,12.829,12.829,0,0,1,5.347,1.028,13.1,13.1,0,0,1,3.907,2.742l-2.125,2.811a12,12,0,0,0-2.948-1.919,10.085,10.085,0,0,0-3.839-.754A5.738,5.738,0,0,0,46.93,73.1a4.333,4.333,0,0,0-1.508,3.565,4.544,4.544,0,0,0,.617,2.468A5.493,5.493,0,0,0,48.1,80.985,22.183,22.183,0,0,0,52.14,82.7a17.028,17.028,0,0,1,6.581,3.839,9.481,9.481,0,0,1,2.125,6.581,10.224,10.224,0,0,1-1.3,5.278,9.465,9.465,0,0,1-3.77,3.565,12.269,12.269,0,0,1-5.9,1.3,14.16,14.16,0,0,1-6.033-1.234,13.057,13.057,0,0,1-4.182-3.016Z" transform="translate(4.157 8.276)" fill="#fff"></path>
    <g id="Group_3395" data-name="Group 3395" transform="translate(204.231 107.77)">
      <path id="Path_4260" data-name="Path 4260" d="M186.513,97.993a1.916,1.916,0,0,1-1.919,1.919,1.874,1.874,0,0,1-1.919-1.919,1.919,1.919,0,0,1,3.839,0Zm-3.359,0a1.373,1.373,0,1,0,2.742,0,1.39,1.39,0,0,0-1.371-1.44A1.435,1.435,0,0,0,183.154,97.993Zm1.165.891h-.548V97.17c.137,0,.411-.069.754-.069a1.272,1.272,0,0,1,.686.137.415.415,0,0,1,.206.411q0,.308-.411.411h0c.206.069.274.206.343.48s.069.343.137.411h-.617c-.069-.069-.069-.206-.137-.343a.251.251,0,0,0-.274-.274h-.206v.548Zm0-.96h.137c.206,0,.343-.069.343-.206s-.137-.206-.274-.206h-.206v.411Z" transform="translate(-182.674 -96.073)" fill="#fff"></path>
    </g>
  </g>
</svg>
