<?xml version="1.0" encoding="UTF-8"?>
<!-- Generator: Adobe Illustrator 24.3.0, SVG Export Plug-In . SVG Version: 6.00 Build 0)  -->
<svg xmlns="http://www.w3.org/2000/svg" xmlns:xlink="http://www.w3.org/1999/xlink" version="1.1" x="0px" y="0px" viewBox="0 0 360 237.2" style="enable-background:new 0 0 360 237.2;" xml:space="preserve">
<style type="text/css">
	.st0{fill:#FFFFFF;}
	.st1{fill:#002F87;}
	.st2{fill:#D02C2F;}
	.st3{fill:#FFC629;}
</style>
<g id="Do_Not_Print">
</g>
<g id="Layer_1">
	<g>
		<g>
			<path class="st0" d="M9-0.1h342l0,169.3c0,0-148.7,58.9-160.5,63.2c-10.6,3.8-18.9-0.9-18.9-0.9L9,169.2V-0.1z"></path>
		</g>
		<g>
			<path class="st1" d="M9-0.1h342l0,160.6c0,0-148.7,59.4-160.5,63.7c-10.6,3.9-18.9-0.9-18.9-0.9L9,160.5V-0.1z"></path>
		</g>
	</g>
	<path class="st2" d="M293.4,83.7L174,81.1c-3.1,2.6-5.9,5-7.6,6.4l127-2.7c0.3,0,0.5-0.2,0.5-0.5C293.9,83.9,293.7,83.7,293.4,83.7   "></path>
	<path class="st2" d="M113.9,81.5l-48.6,2.2c-0.3,0-0.5,0.2-0.5,0.5c0,0.3,0.2,0.5,0.5,0.5l55.2,2.5C119,86,116.6,83.9,113.9,81.5"></path>
	<path class="st3" d="M160.5,103.3c0,0-4.4-18.8-4.6-19.6c0.6-0.5,15.4-12.9,15.4-12.9s-19.2-1.6-20-1.7c-0.3-0.8-7.5-18.6-7.5-18.6   s-7.5,17.8-7.8,18.5c-0.8,0.1-20,1.4-20,1.4s14.6,12.6,15.2,13.1c-0.2,0.8-4.9,19.5-4.9,19.5s16.5-10,17.2-10.4   C144.1,93.1,160.5,103.3,160.5,103.3"></path>
	<polygon class="st0" points="143.7,54.2 143.5,79.7 150.3,70.5  "></polygon>
	<polygon class="st0" points="119.5,71.3 143.5,79.7 137,70.3  "></polygon>
	<polygon class="st0" points="128.6,100.3 143.5,79.6 132.7,83.2  "></polygon>
	<polygon class="st0" points="158.3,100.3 143.5,79.6 143.4,91  "></polygon>
	<polygon class="st0" points="167.8,72.1 143.5,79.7 154.3,83.3  "></polygon>
	<path class="st0" d="M258.2,117.9v-5.1h-22.5V162h22.5v-4.4H243l0-18h11.4l0-4.3H243v-17.4H258.2z M275.9,140.8l-1.8-3.1V162h-7.2   v-49.2H278c4.7,0,8.3,0.8,10.5,2.5c2.9,2.2,4.2,6,4.2,12.1c0,8.4-6.4,12.3-8.6,12.7l-1.3,0.2l0.7,1.2l11.7,20.6h-7.1L275.9,140.8z    M275.1,135.9c4.4,0,7-1.6,8.1-2.5c1.7-1.4,2.5-3.8,2.5-7c0-1.6-0.2-2.2-0.4-3.1l-0.1-0.3c-0.3-1.3-0.9-1.9-1.5-2.5l-0.2-0.2   c-0.8-0.8-1.8-1.4-2.9-1.8c-1.1-0.4-2.5-0.5-4-0.5h-2.5v17.9H275.1z M219.1,162h6.6v-49.2h-7.3l0.1,32.3l0,4.3l-1.8-3.9l-15-32.7   h-7.2V162h7.4l-0.2-32l0-4.2l1.8,3.8L219.1,162z M139.2,162h6.9v-49.3h-6.9V162z M114.1,136.6l0.4-0.6l16.8-23.3h-6.5l-13.8,20   l-1.7,2.5v-22.6h-6.9V162h6.9l-0.1-19.8l0-3.1l1.7,2.5l13.8,20.3h7.5l-17.8-24.9L114.1,136.6z M179.8,162h6.6v-49.2h-7.3l0.1,32.3   l0,4.3l-1.8-3.9l-15-32.7h-7.2V162h7.4l-0.2-32l0-4.2l1.8,3.8L179.8,162z M68.1,152.2c1.6,1.4,3.2,2.5,4.9,3.3   c2,0.9,4.2,1.4,6.5,1.4c2.7,0,4.9-0.8,6.6-2.2c1.7-1.5,2.6-3.6,2.6-6.3c0-1.6-0.3-3-0.9-4.1c-0.6-1.1-1.6-2.1-3-2.9   c-1.3-0.8-3.2-1.6-5.6-2.5c-4.6-1.6-7.9-3.6-9.9-5.8c-1.9-2.2-2.9-5.1-2.9-8.7c0-2.6,0.6-5,1.8-6.9c1.2-2,2.9-3.5,5-4.6   c2.2-1.1,4.7-1.7,7.4-1.7c3,0,5.6,0.5,7.8,1.5c2,0.9,3.9,2.2,5.7,4l-3.1,4.1c-1.4-1.2-2.9-2.2-4.3-2.8c-1.7-0.7-3.6-1.1-5.6-1.1   c-2.3,0-4.2,0.6-5.6,1.8c-1.5,1.2-2.2,3-2.2,5.2c0,1.4,0.3,2.7,0.9,3.6c0.6,1,1.6,1.9,3,2.7c1.3,0.8,3.3,1.6,5.9,2.5   c4.2,1.5,7.5,3.4,9.6,5.6c2,2.2,3.1,5.4,3.1,9.6c0,2.9-0.6,5.5-1.9,7.7c-1.3,2.2-3.1,3.9-5.5,5.2c-2.4,1.3-5.3,1.9-8.6,1.9   c-3.3,0-6.2-0.6-8.8-1.8c-2.3-1.1-4.4-2.5-6.1-4.4L68.1,152.2z"></path>
	<g>
		<path class="st0" d="M304.5,160c0,1.5-1.2,2.8-2.8,2.8s-2.8-1.2-2.8-2.8c0-1.5,1.3-2.8,2.8-2.8S304.5,158.5,304.5,160z M299.6,160    c0,1.2,0.8,2.1,2,2.1s2-0.9,2-2.1c0-1.1-0.8-2.1-2-2.1C300.5,157.9,299.6,158.9,299.6,160z M301.3,161.3h-0.8v-2.5    c0.2,0,0.6-0.1,1.1-0.1c0.6,0,0.8,0.1,1,0.2c0.2,0.1,0.3,0.3,0.3,0.6s-0.2,0.5-0.6,0.6v0c0.3,0.1,0.4,0.3,0.5,0.7    c0.1,0.4,0.1,0.5,0.2,0.6h-0.9c-0.1-0.1-0.1-0.3-0.2-0.5c0-0.3-0.2-0.4-0.4-0.4h-0.3V161.3z M301.3,159.9h0.2    c0.3,0,0.5-0.1,0.5-0.3c0-0.2-0.2-0.3-0.4-0.3c-0.1,0-0.2,0-0.3,0V159.9z"></path>
	</g>
</g>
</svg>
