<?xml version="1.0" encoding="UTF-8"?>
<svg xmlns="http://www.w3.org/2000/svg" width="484.262" height="368.239" viewBox="0 0 484.262 368.239">
  <g id="Group_3472" data-name="Group 3472" transform="translate(-489.196 -59.894)">
    <g id="Group_3467" data-name="Group 3467">
      <g id="Group_3446" data-name="Group 3446">
        <g id="Group_3252" data-name="Group 3252" transform="translate(582 59.894)" opacity="0.854" style="mix-blend-mode: multiply;isolation: isolate">
          <path id="Path_22" data-name="Path 22" d="M434.584,375.314c2.4,7.582,7.123,13.143,12.075,18.552,5.6,5.067,11.314,9.942,19.238,12.3.494.191,1.066.306,1.6.457-2.018-8.724-7.009-15.314-12.647-20.951s-12.228-10.628-20.952-12.648A19.941,19.941,0,0,0,434.584,375.314Z" transform="translate(-207.002 -187.164)" fill="none"></path>
          <path id="Path_23" data-name="Path 23" d="M448.914,425.985l-.685-.686a10.292,10.292,0,0,1-.876-.952l-.344-.342A106.526,106.526,0,0,1,431.2,401.718c-1.066.609-2.172,1.105-3.315,1.638a87.047,87.047,0,0,1-36,7.886c-54.7,0-95.654-51.846-84.645-104.911a69.936,69.936,0,0,1,8.114-20.609l.038-.038a74.913,74.913,0,0,1-7.01-3.961,115.769,115.769,0,0,1-15.732-12.152c-.495-.419-.952-.876-1.41-1.258l-.685-.686a10.461,10.461,0,0,1-.877-.952l-.341-.342a110.651,110.651,0,0,1-12.076-15.81,139.854,139.854,0,0,0-12.609,24.571c-19.543,50.474-6.742,107.463,30.779,145.975,43.886,42.818,111.464,52.57,164.91,21.6,1.486-.876,3.466-2.018,5.713-3.276a115.688,115.688,0,0,1-15.732-12.152C449.828,426.822,449.371,426.365,448.914,425.985Z" transform="translate(-226.971 -200.883)" fill="none"></path>
          <path id="Path_24" data-name="Path 24" d="M445.835,486.473c6.2-2.777,10.088-4.248,12.779-5.26l14.933-8.482,30.009-21.088-27.406-3.42a79.641,79.641,0,0,1-7.212-4.077c-2.247,1.258-4.228,2.4-5.713,3.276-53.446,30.971-121.025,21.219-164.91-21.6-37.521-38.512-50.322-95.5-30.779-145.975a139.854,139.854,0,0,1,12.609-24.571c-1.333-2.095-2.59-4.266-3.733-6.475-6.247-12.343-8.609-25.828,1.294-35.808l.038-.039c.534-.534,1.105-1.029,1.715-1.561a25.187,25.187,0,0,1,4.991-3.315,10.454,10.454,0,0,0-1.753.838C270.2,216,259.8,233.03,252.6,245.029c-38.476,64.532-26.819,147.348,24.913,200.832l.8.8C322.654,489.552,387.312,505.5,445.835,486.473Z" transform="translate(-229.851 -205.636)" fill="#f4ae45"></path>
          <path id="Path_25" data-name="Path 25" d="M310.373,282.143l-.038.038a69.935,69.935,0,0,0-8.114,20.609C291.212,355.855,332.162,407.7,386.866,407.7a87.046,87.046,0,0,0,36-7.886c1.143-.533,2.249-1.029,3.315-1.638-6.247-12.343-8.61-25.828,1.294-35.808-1.333,1.181-2.742,2.362-4.19,3.581A57.618,57.618,0,0,1,401.494,377a58.291,58.291,0,0,1-44.8-6.629c-28.532-17.561-36.456-57.407-15.924-84.187.991-1.3,1.9-2.514,2.781-3.7C333.8,290.029,321.573,287.781,310.373,282.143Z" transform="translate(-221.948 -197.342)" fill="#f4ae45"></path>
          <path id="Path_26" data-name="Path 26" d="M491.575,397.265c-8.8-21.9-32.761-46.17-56-49.141,14.058,2.552,28.571,13.713,37.142,22.284C479.08,376.77,487,386.674,491.575,397.265Z" transform="translate(-206.814 -189.953)" fill="#f4ae45"></path>
          <path id="Path_27" data-name="Path 27" d="M414.06,390.839a106.527,106.527,0,0,0,15.808,22.286l.344.343a10.289,10.289,0,0,0,.876.952l.685.686c.457.38.914.837,1.41,1.257a115.684,115.684,0,0,0,15.732,12.152,79.635,79.635,0,0,0,7.212,4.076v-3.774H477.34V412.04h21.147a42.46,42.46,0,0,0-3.9-14.725c-4.571-10.591-12.5-20.495-18.857-26.857-8.571-8.571-23.085-19.732-37.142-22.284-7.58-1.334-15.084-.152-21.485,5.258-.609.533-1.181,1.027-1.715,1.561l-.038.038C405.45,365.011,407.813,378.5,414.06,390.839Zm43.617-2.323c5.638,5.637,10.628,12.227,12.647,20.951-.533-.151-1.105-.266-1.6-.457-7.924-2.362-13.638-7.237-19.238-12.3-4.952-5.41-9.675-10.971-12.075-18.552a19.918,19.918,0,0,1-.686-2.285C445.449,377.888,452.04,382.877,457.678,388.516Z" transform="translate(-209.83 -190.004)" fill="#f4ae45"></path>
          <path id="Path_28" data-name="Path 28" d="M273.6,213.2l-.038.039c-9.9,9.98-7.541,23.465-1.294,35.808,1.143,2.21,2.4,4.38,3.733,6.475a110.653,110.653,0,0,0,12.076,15.81l.341.342a10.467,10.467,0,0,0,.877.952l.685.686c.458.381.915.838,1.41,1.258a115.775,115.775,0,0,0,15.732,12.152,74.891,74.891,0,0,0,7.01,3.961c11.2,5.638,23.428,7.886,33.18.342l.076-.076c.076-.076.228-.152.344-.267a23.662,23.662,0,0,0,2.056-1.828c9.333-9.333,8.19-21.751,3.01-33.333-.152-.3-.267-.57-.419-.876a31.713,31.713,0,0,0-1.448-3.047,94.213,94.213,0,0,0-14.514-20.382c-.838-.914-1.677-1.751-2.476-2.552-.533-.534-1.1-1.1-1.715-1.638-.533-.533-1.142-1.142-1.751-1.676-.915-.762-1.829-1.6-2.743-2.362-8.457-7.238-19.847-14.59-30.932-16.609a26.96,26.96,0,0,0-13.18.685,6.18,6.18,0,0,0-1.41.5,7.983,7.983,0,0,0-1.219.457c-.229.077-.457.229-.686.3a25.186,25.186,0,0,0-4.991,3.315C274.7,212.171,274.133,212.666,273.6,213.2Zm54.932,54.475c-.533-.152-1.1-.267-1.6-.458a2.462,2.462,0,0,1-.571-.19c-7.657-2.4-13.18-7.161-18.667-12.114-4.952-5.409-9.675-10.972-12.075-18.551a2.726,2.726,0,0,1-.229-.838,8.085,8.085,0,0,1-.457-1.448c8.723,2.019,15.314,7.009,20.952,12.648S326.512,258.951,328.532,267.675Z" transform="translate(-225.708 -205.882)" fill="#f4ae45"></path>
          <path id="Path_29" data-name="Path 29" d="M415.364,355l-.038.038c-9.9,9.98-7.541,23.465-1.294,35.808,1.143,2.209,2.4,4.38,3.733,6.476a110.7,110.7,0,0,0,12.076,15.809l.341.343a10.161,10.161,0,0,0,.877.952l.686.686c.457.381.914.838,1.409,1.258a115.77,115.77,0,0,0,15.732,12.152,74.654,74.654,0,0,0,7.01,3.961c11.2,5.639,23.428,7.886,33.18.344l.076-.077c.076-.076.228-.151.344-.266a23.457,23.457,0,0,0,2.056-1.829c9.333-9.333,8.19-21.752,3.01-33.332-.152-.3-.267-.572-.419-.876A31.7,31.7,0,0,0,492.7,393.4a94.2,94.2,0,0,0-14.514-20.38c-.838-.914-1.676-1.752-2.476-2.552-.533-.534-1.1-1.105-1.715-1.638-.533-.534-1.142-1.143-1.751-1.677-.915-.762-1.829-1.6-2.743-2.361-8.457-7.239-19.847-14.59-30.932-16.61a26.974,26.974,0,0,0-13.18.686,6.227,6.227,0,0,0-1.41.495,8,8,0,0,0-1.219.457c-.228.077-.457.229-.686.306a25.181,25.181,0,0,0-4.991,3.314C416.469,353.976,415.9,354.47,415.364,355ZM470.3,409.478c-.533-.152-1.1-.267-1.6-.457a2.516,2.516,0,0,1-.572-.191c-7.657-2.4-13.18-7.161-18.667-12.113-4.952-5.41-9.675-10.972-12.075-18.552a2.715,2.715,0,0,1-.229-.837,8.119,8.119,0,0,1-.457-1.448c8.724,2.018,15.314,7.009,20.952,12.647S468.277,400.754,470.3,409.478Z" transform="translate(-209.833 -190.002)" fill="#f4ae45"></path>
          <path id="Path_30" data-name="Path 30" d="M382.115,371.4c-6.886.863-16.065-3.777-26.6-9.482-8.6-4.655-20.357-5.117-20.357,28.508,0,26.8,1.438,37.735,19.411,38.256,31.167.9-2.837,88.212,24.034,88.743,30.406.6,3.157-91.816,19.386-93.565,18.856-2.033-1.379,66.558,28.088,65.617,29.171-.931,7.448-63.305,30.588-58.23,18.711,4.1-18.175,125.652,8.383,125.652,26.719,0-3.942-120.785,14.984-120.738,11.7.029,29.665,29.421,29.656-14.333-.005-25.551-10.274-37.86-27.985-56.148-8.394-8.667-41.944-5.321-54.862-3.76C411.657,363.755,408.483,368.1,382.115,371.4Z" transform="translate(-218.059 -188.662)" fill="#f4ae45"></path>
          <path id="Path_31" data-name="Path 31" d="M404.831,418.511c-2.988-2.606-5.024-6.4-9.092-6.969-3.9-.54-6.19.371-9.614,2.063-1.719.849-.145,3.392,1.57,2.544,2.78-1.372,4.469-2.093,7.644-1.648,3.385.474,5.1,3.847,7.586,6.011C404.364,421.768,406.28,419.775,404.831,418.511Z" transform="translate(-212.435 -182.869)" fill="#fff" opacity="0.35"></path>
          <path id="Path_32" data-name="Path 32" d="M338.78,404.421c.493,3.934.231,8.253,2.89,11.383,2.55,3,4.865,3.845,8.546,4.864,1.848.512,2.366-2.433.524-2.943-2.988-.827-4.728-1.416-6.8-3.861-2.21-2.608-2.5-6.408-2.909-9.675C340.791,402.294,338.541,402.515,338.78,404.421Z" transform="translate(-217.655 -183.822)" fill="#fff" opacity="0.35"></path>
          <path id="Path_33" data-name="Path 33" d="M407.353,460.194a39.618,39.618,0,0,1-.536-8.325c.066-1.72-2.608-1.717-2.672,0a42.857,42.857,0,0,0,.631,9.036C405.07,462.6,407.647,461.879,407.353,460.194Z" transform="translate(-210.337 -178.48)" fill="#fff" opacity="0.35"></path>
          <path id="Path_34" data-name="Path 34" d="M428.4,442.306a50.833,50.833,0,0,1-.078,17.844c-1.15,5.955-2.413,12.272-7.583,12.767-1.747.168-1.221,3.464.476,2.99,5.866-1.638,7.488-7.556,8.773-12.635,1.885-7.454,2.39-14.317.893-21.2C430.47,440.17,428.076,440.378,428.4,442.306Z" transform="translate(-208.596 -179.581)" fill="#fff" opacity="0.35"></path>
          <path id="Path_35" data-name="Path 35" d="M481.641,429.731c-2.987-2.606-5.024-6.4-9.092-6.968-3.9-.542-6.19.371-9.614,2.062-1.719.849-.144,3.393,1.57,2.545,2.78-1.373,4.47-2.094,7.644-1.649,3.385.475,5.1,3.847,7.586,6.013C481.174,432.989,483.089,431,481.641,429.731Z" transform="translate(-203.833 -181.612)" fill="#fff" opacity="0.35"></path>
          <path id="Path_36" data-name="Path 36" d="M437.684,351.489a19.089,19.089,0,0,0-15.843,4.7c-1.125,1.068.568,2.779,1.693,1.712,8.855-8.392,21.551-2.844,29.287,4.078,1.15,1.029,2.87-.657,1.712-1.694C449.767,356.015,444.139,352.38,437.684,351.489Z" transform="translate(-208.393 -189.599)" fill="#fff" opacity="0.35"></path>
          <path id="Path_37" data-name="Path 37" d="M457.408,501.057c.8,6.1,1.945,11.154.838,17.758-1.388,8.29-2.522,10.566-5.275,13.033-2.306,2.066-.974,5.591.7,5.043,4.965-1.629,6.474-8.922,7.138-14.12a61.916,61.916,0,0,0-.917-21.948C459.476,498.921,457.154,499.118,457.408,501.057Z" transform="translate(-205.004 -173.002)" fill="#fff" opacity="0.35"></path>
          <path id="Path_38" data-name="Path 38" d="M370.322,467.133c-.8,6.1-1.945,11.154-.84,17.758,1.389,8.29,2.523,10.566,5.276,13.034,2.306,2.066.974,5.591-.7,5.042-4.965-1.629-6.474-8.921-7.138-14.119a61.922,61.922,0,0,1,.916-21.948C368.254,465,370.576,465.194,370.322,467.133Z" transform="translate(-214.566 -176.801)" fill="#fff" opacity="0.35"></path>
        </g>
        <path id="Path_4026" data-name="Path 4026" d="M1378.088,878.931H905.913c-3.139,0-5.706,2.077-5.706,4.613s2.568,4.611,5.706,4.611h430.081a5.542,5.542,0,0,1,5.541,5.541v7.127c0,2.011,2.016,3.638,4.5,3.638s4.5-1.627,4.5-3.638V894.69c0-2.012,2.013-3.638,4.5-3.638s4.5,1.626,4.5,3.638v17.176c0,2.009,2.015,3.638,4.5,3.638s4.5-1.629,4.5-3.638V894.343l.09.086s-1.227-6.147,5.587-6.274h3.869c3.139,0,5.706-2.074,5.706-4.611S1381.22,878.931,1378.088,878.931Z" transform="translate(-411.011 -584.168)" fill="#f5ba19"></path>
        <g id="Group_3437" data-name="Group 3437" transform="translate(483.486 -1500.28)">
          <g id="Group_3436" data-name="Group 3436" transform="translate(5.71 1755.542)" style="isolation: isolate">
            <path id="Path_4283" data-name="Path 4283" d="M11.644,1786.71a.664.664,0,0,1-.212-.51v-14.5H6.446a.734.734,0,0,1-.524-.2.665.665,0,0,1-.212-.51v-3.172a.724.724,0,0,1,.736-.737h15.38a.725.725,0,0,1,.736.737v3.172a.666.666,0,0,1-.213.51.732.732,0,0,1-.524.2H16.842v14.5a.664.664,0,0,1-.213.51.737.737,0,0,1-.524.2H12.168A.737.737,0,0,1,11.644,1786.71Z" transform="translate(-5.71 -1766.798)"></path>
            <path id="Path_4284" data-name="Path 4284" d="M29.406,1786.71a.687.687,0,0,1-.2-.51v-18.382a.742.742,0,0,1,.2-.525.667.667,0,0,1,.509-.212H33.8a.725.725,0,0,1,.737.737v6.712h6.685v-6.712a.724.724,0,0,1,.736-.737h3.852a.725.725,0,0,1,.736.737V1786.2a.664.664,0,0,1-.213.51.737.737,0,0,1-.524.2H41.954a.737.737,0,0,1-.524-.2.664.664,0,0,1-.212-.51v-6.94H34.533v6.94a.664.664,0,0,1-.213.51.737.737,0,0,1-.524.2h-3.88A.686.686,0,0,1,29.406,1786.71Z" transform="translate(-7.738 -1766.798)"></path>
            <path id="Path_4285" data-name="Path 4285" d="M54.933,1786.7a.68.68,0,0,1-.213-.5v-18.382a.739.739,0,0,1,.2-.525.667.667,0,0,1,.509-.212H68.8a.724.724,0,0,1,.736.737v2.8a.667.667,0,0,1-.212.511.743.743,0,0,1-.524.2h-8.95v3.6h8.327a.724.724,0,0,1,.736.737v2.577a.725.725,0,0,1-.736.737H59.848v3.682h9.176a.724.724,0,0,1,.736.737v2.8a.664.664,0,0,1-.212.51.737.737,0,0,1-.524.2h-13.6A.679.679,0,0,1,54.933,1786.7Z" transform="translate(-9.939 -1766.798)"></path>
            <path id="Path_4286" data-name="Path 4286" d="M87.876,1785.237q-2.279-1.954-2.28-5.863v-11.556a.742.742,0,0,1,.2-.525.667.667,0,0,1,.51-.212h3.88a.725.725,0,0,1,.736.737v11.5a3.69,3.69,0,0,0,.835,2.633,3.679,3.679,0,0,0,4.787-.014,3.7,3.7,0,0,0,.836-2.619v-11.5a.724.724,0,0,1,.736-.737h3.852a.725.725,0,0,1,.736.737v11.556q0,3.91-2.266,5.863a9.276,9.276,0,0,1-6.26,1.954A9.378,9.378,0,0,1,87.876,1785.237Z" transform="translate(-12.604 -1766.798)"></path>
            <path id="Path_4287" data-name="Path 4287" d="M110.887,1786.7a.679.679,0,0,1-.212-.5v-18.411a.667.667,0,0,1,.212-.51.709.709,0,0,1,.5-.2h3.965a.679.679,0,0,1,.708.708v14.672h8.5a.726.726,0,0,1,.736.738v3a.664.664,0,0,1-.213.51.737.737,0,0,1-.524.2H111.383A.681.681,0,0,1,110.887,1786.7Z" transform="translate(-14.768 -1766.798)"></path>
            <path id="Path_4288" data-name="Path 4288" d="M132.76,1786.71a.667.667,0,0,1-.212-.51v-14.5h-4.985a.73.73,0,0,1-.524-.2.663.663,0,0,1-.213-.51v-3.172a.725.725,0,0,1,.736-.737h15.38a.724.724,0,0,1,.736.737v3.172a.668.668,0,0,1-.212.51.735.735,0,0,1-.524.2h-4.985v14.5a.661.661,0,0,1-.213.51.735.735,0,0,1-.524.2h-3.937A.74.74,0,0,1,132.76,1786.71Z" transform="translate(-16.162 -1766.798)"></path>
            <path id="Path_4289" data-name="Path 4289" d="M150.536,1786.7a.679.679,0,0,1-.212-.5v-18.411a.667.667,0,0,1,.212-.51.707.707,0,0,1,.5-.2h4.05a.679.679,0,0,1,.708.708V1786.2a.707.707,0,0,1-.2.5.667.667,0,0,1-.51.212h-4.05A.68.68,0,0,1,150.536,1786.7Z" transform="translate(-18.19 -1766.798)"></path>
            <path id="Path_4290" data-name="Path 4290" d="M163.06,1786.71a.664.664,0,0,1-.212-.51v-18.382a.724.724,0,0,1,.736-.737h3.2a1.061,1.061,0,0,1,1.02.624l4.872,8.724,4.9-8.724a1.059,1.059,0,0,1,1.02-.624h3.2a.725.725,0,0,1,.736.737V1786.2a.665.665,0,0,1-.213.51.737.737,0,0,1-.524.2h-3.6a.724.724,0,0,1-.708-.708v-10.309l-3.059,5.607a1.11,1.11,0,0,1-.991.651h-1.53a1.2,1.2,0,0,1-.991-.651l-3.031-5.607V1786.2a.664.664,0,0,1-.213.51.737.737,0,0,1-.524.2h-3.569A.737.737,0,0,1,163.06,1786.71Z" transform="translate(-19.271 -1766.798)"></path>
            <path id="Path_4291" data-name="Path 4291" d="M189.258,1786.725a.568.568,0,0,1-.185-.411.835.835,0,0,1,.028-.254l6.6-18.157a1.107,1.107,0,0,1,1.133-.821h4.419a1.106,1.106,0,0,1,1.133.821l6.6,18.157a.837.837,0,0,1,.028.254.63.63,0,0,1-.595.595h-3.682a.984.984,0,0,1-.963-.622l-1.02-2.748h-7.421l-1.02,2.748a.983.983,0,0,1-.963.622h-3.682A.565.565,0,0,1,189.258,1786.725Zm7.265-7.436h5.042l-2.521-7.223Z" transform="translate(-21.534 -1766.798)"></path>
            <path id="Path_4292" data-name="Path 4292" d="M217.823,1786.71a.667.667,0,0,1-.212-.51v-14.5h-4.985a.73.73,0,0,1-.524-.2.662.662,0,0,1-.213-.51v-3.172a.725.725,0,0,1,.736-.737h15.38a.724.724,0,0,1,.736.737v3.172a.668.668,0,0,1-.212.51.735.735,0,0,1-.524.2h-4.985v14.5a.661.661,0,0,1-.213.51.735.735,0,0,1-.524.2h-3.937A.739.739,0,0,1,217.823,1786.71Z" transform="translate(-23.503 -1766.798)"></path>
            <path id="Path_4293" data-name="Path 4293" d="M235.6,1786.7a.679.679,0,0,1-.212-.5v-18.382a.742.742,0,0,1,.2-.525.667.667,0,0,1,.51-.212h13.369a.725.725,0,0,1,.736.737v2.8a.668.668,0,0,1-.213.511.74.74,0,0,1-.524.2h-8.951v3.6h8.327a.724.724,0,0,1,.736.737v2.577a.725.725,0,0,1-.736.737h-8.327v3.682h9.177a.726.726,0,0,1,.736.737v2.8a.661.661,0,0,1-.213.51.737.737,0,0,1-.524.2H236.1A.68.68,0,0,1,235.6,1786.7Z" transform="translate(-25.531 -1766.798)"></path>
            <path id="Path_4294" data-name="Path 4294" d="M268.245,1785.21a7.467,7.467,0,0,1-2.451-5.722q-.029-.765-.028-2.492,0-1.756.028-2.549a7.463,7.463,0,0,1,2.479-5.679,9.422,9.422,0,0,1,6.33-2,11.787,11.787,0,0,1,4.518.822,7.3,7.3,0,0,1,3.158,2.379,6.275,6.275,0,0,1,1.218,3.683.557.557,0,0,1-.184.425.627.627,0,0,1-.44.169h-4.022a.892.892,0,0,1-.58-.155,1.3,1.3,0,0,1-.326-.581,3.369,3.369,0,0,0-1.2-1.941,3.73,3.73,0,0,0-2.139-.552q-3.2,0-3.313,3.569-.029.764-.029,2.351t.029,2.407q.112,3.57,3.313,3.569a3.731,3.731,0,0,0,2.139-.567,3.234,3.234,0,0,0,1.2-1.926,1.067,1.067,0,0,1,.312-.58.954.954,0,0,1,.594-.156h4.022a.632.632,0,0,1,.44.17.555.555,0,0,1,.184.426,6.272,6.272,0,0,1-1.218,3.681,7.29,7.29,0,0,1-3.158,2.379,11.794,11.794,0,0,1-4.518.821A9.535,9.535,0,0,1,268.245,1785.21Z" transform="translate(-28.152 -1766.771)"></path>
            <path id="Path_4295" data-name="Path 4295" d="M292.47,1785.21a7.478,7.478,0,0,1-2.464-5.75q-.029-.792-.028-2.436t.028-2.464a7.5,7.5,0,0,1,2.479-5.764,10.862,10.862,0,0,1,12.632,0,7.492,7.492,0,0,1,2.479,5.764q.056,1.643.057,2.464,0,.85-.057,2.436a7.5,7.5,0,0,1-2.451,5.75,11.252,11.252,0,0,1-12.675,0Zm8.7-3.186a3.943,3.943,0,0,0,.935-2.733q.056-1.644.058-2.352t-.058-2.293a3.946,3.946,0,0,0-.935-2.734,3.15,3.15,0,0,0-2.351-.892,3.19,3.19,0,0,0-2.379.892,3.941,3.941,0,0,0-.935,2.734q-.029.793-.028,2.293,0,1.531.028,2.352a3.939,3.939,0,0,0,.935,2.733,3.187,3.187,0,0,0,2.379.892A3.147,3.147,0,0,0,301.165,1782.024Z" transform="translate(-30.242 -1766.771)"></path>
            <path id="Path_4296" data-name="Path 4296" d="M315.362,1786.71a.665.665,0,0,1-.213-.51v-18.382a.725.725,0,0,1,.736-.737h3.2a1.059,1.059,0,0,1,1.02.624l4.872,8.724,4.9-8.724a1.059,1.059,0,0,1,1.02-.624h3.2a.724.724,0,0,1,.736.737V1786.2a.667.667,0,0,1-.212.51.739.739,0,0,1-.524.2h-3.6a.724.724,0,0,1-.708-.708v-10.309l-3.059,5.607a1.109,1.109,0,0,1-.991.651h-1.53a1.2,1.2,0,0,1-.991-.651l-3.031-5.607V1786.2a.664.664,0,0,1-.212.51.741.741,0,0,1-.525.2h-3.569A.735.735,0,0,1,315.362,1786.71Z" transform="translate(-32.414 -1766.798)"></path>
            <path id="Path_4297" data-name="Path 4297" d="M343.448,1786.7a.68.68,0,0,1-.213-.5v-18.382a.742.742,0,0,1,.2-.525.669.669,0,0,1,.51-.212h13.171a.724.724,0,0,1,.736.737v3a.664.664,0,0,1-.212.51.735.735,0,0,1-.524.2h-8.668v3.937h8.1a.726.726,0,0,1,.736.736v3a.666.666,0,0,1-.212.509.739.739,0,0,1-.524.2h-8.1v6.288a.706.706,0,0,1-.2.5.666.666,0,0,1-.51.212h-3.8A.676.676,0,0,1,343.448,1786.7Z" transform="translate(-34.838 -1766.798)"></path>
            <path id="Path_4298" data-name="Path 4298" d="M366.467,1785.21a7.478,7.478,0,0,1-2.464-5.75q-.029-.792-.028-2.436t.028-2.464a7.49,7.49,0,0,1,2.479-5.764,10.862,10.862,0,0,1,12.632,0,7.5,7.5,0,0,1,2.479,5.764q.056,1.643.056,2.464,0,.85-.056,2.436a7.5,7.5,0,0,1-2.451,5.75,11.253,11.253,0,0,1-12.675,0Zm8.7-3.186a3.947,3.947,0,0,0,.935-2.733q.056-1.644.057-2.352t-.057-2.293a3.95,3.95,0,0,0-.935-2.734,3.153,3.153,0,0,0-2.351-.892,3.188,3.188,0,0,0-2.379.892,3.942,3.942,0,0,0-.935,2.734q-.029.793-.028,2.293,0,1.531.028,2.352a3.939,3.939,0,0,0,.935,2.733,3.185,3.185,0,0,0,2.379.892A3.15,3.15,0,0,0,375.162,1782.024Z" transform="translate(-36.628 -1766.771)"></path>
            <path id="Path_4299" data-name="Path 4299" d="M389.359,1786.7a.68.68,0,0,1-.213-.5v-18.382a.742.742,0,0,1,.2-.525.669.669,0,0,1,.51-.212h7.789a9.087,9.087,0,0,1,5.849,1.7,5.8,5.8,0,0,1,2.11,4.788,5.958,5.958,0,0,1-.921,3.37,6.1,6.1,0,0,1-2.535,2.154l3.825,6.91a.717.717,0,0,1,.084.312.593.593,0,0,1-.17.411.552.552,0,0,1-.425.184h-3.994a1.182,1.182,0,0,1-1.161-.765L397.19,1780h-2.719v6.2a.664.664,0,0,1-.213.51.734.734,0,0,1-.524.2h-3.88A.676.676,0,0,1,389.359,1786.7Zm8.256-10.863a2.585,2.585,0,0,0,1.855-.608,2.221,2.221,0,0,0,.639-1.686,2.367,2.367,0,0,0-.639-1.728,2.48,2.48,0,0,0-1.855-.651h-3.144v4.673Z" transform="translate(-38.8 -1766.798)"></path>
            <path id="Path_4300" data-name="Path 4300" d="M417.246,1786.71a.665.665,0,0,1-.213-.51v-14.5h-4.985a.733.733,0,0,1-.524-.2.665.665,0,0,1-.212-.51v-3.172a.724.724,0,0,1,.736-.737h15.38a.727.727,0,0,1,.737.737v3.172a.663.663,0,0,1-.214.51.73.73,0,0,1-.523.2h-4.985v14.5a.664.664,0,0,1-.212.51.739.739,0,0,1-.524.2H417.77A.736.736,0,0,1,417.246,1786.71Z" transform="translate(-40.713 -1766.798)"></path>
            <path id="Path_4301" data-name="Path 4301" d="M443.143,1786.7a.679.679,0,0,1-.212-.5v-18.382a.741.741,0,0,1,.2-.525.67.67,0,0,1,.51-.212h13.171a.725.725,0,0,1,.736.737v3a.662.662,0,0,1-.213.51.734.734,0,0,1-.523.2h-8.667v3.937h8.1a.727.727,0,0,1,.737.736v3a.663.663,0,0,1-.213.509.738.738,0,0,1-.524.2h-8.1v6.288a.7.7,0,0,1-.2.5.666.666,0,0,1-.51.212h-3.8A.677.677,0,0,1,443.143,1786.7Z" transform="translate(-43.442 -1766.798)"></path>
            <path id="Path_4302" data-name="Path 4302" d="M466.162,1785.21a7.48,7.48,0,0,1-2.464-5.75q-.027-.792-.028-2.436t.028-2.464a7.492,7.492,0,0,1,2.479-5.764,10.862,10.862,0,0,1,12.632,0,7.5,7.5,0,0,1,2.479,5.764q.056,1.643.057,2.464,0,.85-.057,2.436a7.5,7.5,0,0,1-2.45,5.75,11.254,11.254,0,0,1-12.676,0Zm8.7-3.186a3.943,3.943,0,0,0,.936-2.733q.056-1.644.056-2.352t-.056-2.293a3.946,3.946,0,0,0-.936-2.734,3.153,3.153,0,0,0-2.351-.892,3.188,3.188,0,0,0-2.379.892,3.946,3.946,0,0,0-.935,2.734q-.029.793-.027,2.293,0,1.531.027,2.352a3.944,3.944,0,0,0,.935,2.733,3.186,3.186,0,0,0,2.379.892A3.15,3.15,0,0,0,474.857,1782.024Z" transform="translate(-45.231 -1766.771)"></path>
            <path id="Path_4303" data-name="Path 4303" d="M490.652,1785.21a7.478,7.478,0,0,1-2.465-5.75q-.027-.792-.028-2.436t.028-2.464a7.492,7.492,0,0,1,2.479-5.764,10.863,10.863,0,0,1,12.633,0,7.5,7.5,0,0,1,2.478,5.764q.056,1.643.057,2.464,0,.85-.057,2.436a7.5,7.5,0,0,1-2.45,5.75,11.253,11.253,0,0,1-12.675,0Zm8.695-3.186a3.943,3.943,0,0,0,.936-2.733q.056-1.644.056-2.352t-.056-2.293a3.946,3.946,0,0,0-.936-2.734,3.152,3.152,0,0,0-2.351-.892,3.185,3.185,0,0,0-2.378.892,3.942,3.942,0,0,0-.936,2.734q-.027.793-.027,2.293,0,1.531.027,2.352a3.939,3.939,0,0,0,.936,2.733,3.182,3.182,0,0,0,2.378.892A3.149,3.149,0,0,0,499.347,1782.024Z" transform="translate(-47.345 -1766.771)"></path>
            <path id="Path_4304" data-name="Path 4304" d="M513.544,1786.7a.68.68,0,0,1-.212-.5v-18.382a.738.738,0,0,1,.2-.525.667.667,0,0,1,.509-.212h7.45a9.69,9.69,0,0,1,6.515,2,7.472,7.472,0,0,1,2.436,5.735q.027.823.028,2.182t-.028,2.151q-.284,7.761-8.809,7.761h-7.592A.678.678,0,0,1,513.544,1786.7Zm7.946-4.037a3.594,3.594,0,0,0,2.634-.85,3.9,3.9,0,0,0,.906-2.718c.038-.548.056-1.256.056-2.125s-.018-1.566-.056-2.1a3.682,3.682,0,0,0-.978-2.676,3.816,3.816,0,0,0-2.705-.864h-2.691v11.33Z" transform="translate(-49.517 -1766.798)"></path>
          </g>
        </g>
      </g>
    </g>
    <g id="Group_3462" data-name="Group 3462">
      <g id="Group_3461" data-name="Group 3461" transform="translate(492.631 121)">
        <g id="Group_3458" data-name="Group 3458">
          <path id="Path_4360" data-name="Path 4360" d="M50.788,1646.312v-51.739l-.442-.5V1587.8l-.886-6.776v-3.637l-.443-2.644v-5.786l-1.327-2.974-2.066-1.323-4.869,1.488-1.18,1.653v2.81l-.591,1.157v.662L29.1,1608.458l-.886.993-3.541-15.87-.589-.661v-.992l-6.492-21.984-2.507-3.141H7.413l-.443,8.43v11.405l-.59,1.157v9.258l.59.495-.59,1.322v5.621l-.443,1.654,1.033-.5v1.157l-.59.495v1.158h.59l-.59.993v1.322H7.413l-.443,1.653h-.59v2.314l-.443,1.323.443,3.14v4.628l-.443,1.818,1.328-.826-.886,2.314.738.992-.738.827-.443,2.479,1.033-.661v.991h-.59l-.59,3.306,1.18,1.322H5.938v2.48l1.033-.662-.59,1.158,1.033-.5.886.5v1.157l-.591.5-1.327-.993-1.18,1.488.737,4.133v4.628l-.442.991v2.976l.885-.661-.885,1.653v1.818l-.3,2.314,1.18-1.157,1.327,2.81-1.77-1.654-.442.662v2.809l.737,1.489-1.033.661.737.661-.442.5-.591,3.306,1.033,1.323,1.77,1.653h2.361l2.213-1.323v-15.869l.59-1.653v-6.778l.3-2.314v-9.752l-.737-.993.737-1.984v-11.9l.443-2.315v-8.1l.59-10.084v-5.786l.443-3.967.443-.661,1.77,5.62,6.787,29.093,2.213,1.323.59.661h1.77l3.541-2.148,7.229-26.447.591-1.158,2.36-8.6.737,5.62h.886l-1.033,1.322,1.033,9.588v5.124l-.443,1.818.443.5-.443,1.157v2.975l1.033.993-.59.495v12.067l.59.826-.59,1.984.59.661-.885,6.614,1.18,2.809-.886,1.984,1.18-.661-.59,1.984v4.463l.738,1.157-.738.495v8.1l.3,3.967-.3.5v7.273l2.213,3.8,3.541-1.818,1.917-2.314-.442-17.688ZM6.381,1634.742l.59-1.158.443,1.158ZM7.413,1619.2l-.443.661v-2.315l.443-1.156Zm37.474,40.167-.443-1.653.443-.662Z" transform="translate(-4.905 -1560.687)" stroke="#000" stroke-width="1.25"></path>
          <path id="Path_4361" data-name="Path 4361" d="M97.1,1650.816l-.442-3.47-.443-.662V1645.2l-.886-6.116v-3.8L94.292,1629v-6.116l-.442-2.149v-2.479l-.443-2.149v-1.654l-.443-1.488v-6.117h-.886l-3.688-34.381v-1.654l-.59-.991-.442-3.141-.886-3.14-2.361-2.479H79.539l-.591-.662H76.293v5.952l-1.032,3.471-.886,8.265v2.809l-.59,4.132.59,1.489-.443.5v3.14l-.885,2.149v3.141l-.886,4.958,1.77-1.487v.661l-.443.33-.442,1.158H72.014v4.133l-.59.661.886,1.156-.737,2.315v2.644l-.443.5-.443,3.141.443.5-.886,2.479h1.328l-1.328,3.141v4.132l.886,1.157-.886.992V1629l-.59,1.158,1.033.992-1.033.661v4.463l1.033,2.148-1.327,1.654v1.488l-1.034.991.591.828-.738,1.652.59.661-.885.992v1.653l.442.993-.442.5,1.18,1.488-.738,1.653v-.992h-.885v3.637l.59,1.487h-.59l-.59,1.984.59,1.158-1.476,2.974,2.36.662-.442,1.157-.443-.661-1.476,2.314v3.967l-.443-.5v3.636l2.361,2.645h2.8l2.361-1.323v-5.951l1.77-18.349v-2.479h14.9v2.15l.885-1.157-.442,1.487v2.15l1.327,1.653-1.18,1.983h.886l-.738,1.323,1.033,7.438v3.8l.737,3.306,2.657,1.322,3.54-1.322,1.033-2.645-1.917-16.86ZM73.048,1632.8l-1.034.331,1.034-.993ZM87.8,1587.507l.59-.495-.59,1.156Zm1.918,51.9-.886.991-1.475.662-12.1,1.322v-5.454l1.032-2.15V1629l.443-1.488,1.328-13.389v-1.653l1.917-14.547v-1.488l.443-.661v-1.984l.443-2.148v-3.472l.886-2.148,1.033,2.48v7.272l.885.993-.737.826,1.623,10.745h1.033l-.737,1.488,1.18,6.777.443.661.442,8.6.444,3.14v5.786h1.032v1.488l-.59.662.59.495v.992l.443.662.886-.662-.443-.5v-.991l.443,1.487Zm1.77,13.554-.886-.992.886-1.488Z" transform="translate(-9.019 -1560.398)" stroke="#000" stroke-width="1.25"></path>
          <path id="Path_4362" data-name="Path 4362" d="M144.819,1649.206l-.59.827h-.443l-2.213.992-3.394,9.092-4.278,5.289H130.36l-3.688-4.628-2.507-6.943L122.1,1645.9v-3.306l-.443-4.628v-7.438l-.885-13.224,1.917-30.58,3.541-11.405,2.066-3.305h4.131l.442.826h2.214v.661l3.688,4.463,1.476,6.778h4.574l2.507-2.975.591-3.14L145.7,1573.5l-4.278-5.454-6.049-2.149h-7.23l-8.7,5.62-2.656,3.306v2.479l-1.327,2.479v1.984l-.591.5-1.033,5.786v8.76l-1.032.827.442.5-.442,1.323v3.14l-.591,2.479V1621.6l.591,4.96v9.587h1.476v.662l-1.034.661-.59,1.819h.59v3.8l1.623,10.248v1.323l1.033-.827v2.81l.591.33,1.032,3.8,1.476,1.984.443,1.984,4.721,5.621,3.1,1.983,7.081.662,6.344-3.967,4.721-5.456,3.54-6.612v-6.942Zm-30.539-16.033-.444-.827h.444Zm0-22.315-.444.661v-.661l.444-1.322Z" transform="translate(-12.188 -1560.771)" stroke="#000" stroke-width="1.25"></path>
        </g>
        <g id="Group_3459" data-name="Group 3459" transform="translate(167.491 3.472)">
          <path id="Path_4363" data-name="Path 4363" d="M228.549,1632.573l-.59.331.59.5Z" transform="translate(-187.534 -1568.769)" stroke="#000" stroke-width="1.25"></path>
          <path id="Path_4364" data-name="Path 4364" d="M241.539,1676.527l-2.066-2.976h-.59l-.3-2.645-1.917-2.644-.147-.662-.443.33-.148-1.652-1.623-2.811-.147-1.322h-.886l-1.18-1.323-.295-1.488-.886-.5-1.033-1.323.3-.991-.443-.5h-.59v-.993l-.59.5-.591-1.323h-.589l-2.067-3.471-.147-.827h-.59v-.827h-.59l-.147-2.148-.59.827.59-1.984-.3-3.306.886-1.322.3,1.819.885-1.323v-.993l.59-.826-.886.33.148-1.322.295.661.591-.992.885-.661-.443-.661.3-1.819-.59-.827.295-.827-.295-2.313.147-1.323-1.18,2.313v-1.983l-.886,3.305-.3-1.323-.295-.661.738-.33-.3-1.323-1.033-1.322.147-.5-.885-.331.147,1.323-.737,1.323-.148-1.323-.885,1.323-.148-1.818-.443.495-.295,1.819h-.59v2.975l-.738.827.3,1.653-.737.662v-1.158l-1.181-1.157-.295-2.148-.591.991-.442-.495.442-.828-.589-2.313-.591.5v-2.314h-.885l-1.476-2.645-.443-1.654-.442-.495-.148,1.323-1.033-1.818v-1.158l-.59.331v-.827l-.885-1.984-.738.827.295-1.653h-.737l-.443-2.976h-.737l-.738-1.984-1.18-.826-.147-1.984-.3-.5-.589-2.976-.738-1.322.147,2.314-.147.5-.295-1.157-.3-2.314.443-.662-.3-.495-.295-1.323.59-.5.442.5,1.918-1.819L204.8,1599l.443-1.158.443.661h1.033l1.327-2.645-.443-.5.886-1.819,1.476.5.443-.5-.886-.33.737-1.653-.59-1.323h1.18l.59-3.305.3.992.886-.661.885-3.968-.442-1.488-.3-3.305h.59v-1.654l.59-.33-.295-.5-.59-3.141-.591.661-.737-2.809-.443-.826v-.828h-1.18l-1.476-2.314-1.327-.331-.737-.991h-.886l-1.623-.993-.886.661-1.476-.991-2.066.5-.295,1.157-1.476-1.653-.443.5h-.885l-.148.495-2.36,2.149h-.59l-1.18,2.149.147,1.323-.59,2.149h-.59l-.3,3.141,1.77,17.191,2.656,8.1-5.311,9.752-.442.993-.443.33.295.661-.59.662-2.95,11.9-.148,2.645.148,2.314-.443-.5-.59,3.636-.3,3.472.3,7.272.737,6.777,1.77,8.762.59,2.149.148,1.488.885.662.148,1.984,1.623,4.628.443.33.59,1.489,2.213,2.974,1.917,1.323h3.688l.591-.33.589.826,1.181-.991,1.033.495,2.508-.33,1.033-.332,1.475-1.157.3.5,4.278-3.471-.737-.331.737-.661.737-1.984h.59l.591.661.295-3.305.443-1.488.147-1.323h.737l1.623-3.471.591-3.8.589,1.323h.738l.443-2.15,1.033-.827,2.066,2.976.443.991,11.655,17.356,3.836,3.967h.885l.443.5.3-.992,1.623-.826Zm-42.637-99.18,1.033-3.47,2.508-3.141,1.18,1.654,1.77,4.793-.59,5.29-.737.992-3.984,10.579.148.827h-.738l-.59-.827v-1.654l.147-.826v1.323l.443-1.819-.443-1.323.3-1.488-.443-1.653.147-.662-.443-3.305.443-.827Zm14.9,68.434.3.5-.443,2.313-.148-1.322-.59.992.148.826-.591.332-2.213,5.124-.737,2.479-.738,1.818V1660l-4.278,7.108-2.8,2.148h-1.77l-1.18-1.653v-.992l-1.033-1.323-.3,1.323-.737-1.488h.59L196.246,1660v2.149l-.738-1.323.443-1.158-.147-.495-.3.827-.737-2.976-.295-3.305h-.59l-.591-.827-.147-1.322.59.33-.295-2.479h.737l-.295-1.654-.148.826-.59-.661.738-1.653-.3-.827v.827l-.738,2.313-.737-3.967.886-7.107-.148-2.314,1.034-1.984L193,1632.06l.443-.661v-1.323h.59l.59-2.15-.3-1.652.3-1.488-.59.495.147-1.323.443-1.322.147-1.323.59.5v.827l.3-.5.443-2.645-.148-1.156.886.991.443-2.149-.737-1.157.442-2.976h.591l-.3,1.654h.885l.886-.992,1.77,2.81.444.33,11.064,22.646.738.661,1.476,3.306Zm8.41-13.39v-.991l.737-.331.147-1.323.738,1.654-1.033.33Zm.737,2.811.3-1.984.147,1.653Z" transform="translate(-184.591 -1564.123)" stroke="#000" stroke-width="1.25"></path>
          <path id="Path_4365" data-name="Path 4365" d="M210.674,1598.381l.59-1.322-1.033-.662Z" transform="translate(-186.331 -1566.314)" stroke="#000" stroke-width="1.25"></path>
        </g>
        <g id="Group_3460" data-name="Group 3460" transform="translate(244.4 3.472)">
          <path id="Path_4366" data-name="Path 4366" d="M299.115,1650.033h-.443l-2.213.992-3.393,9.092-4.279,5.289h-3.54l-3.688-4.628-2.507-6.943-2.066-7.934v-3.306l-.442-4.628v-7.438l-.886-13.224,1.918-30.58,3.54-11.405,2.066-3.305h4.131l.443.826h2.213v.661l3.688,4.463,1.475,6.778H299.7l2.508-2.975.59-3.14-2.213-5.125-4.278-5.454-6.049-2.149h-7.229l-8.705,5.62-2.656,3.306v2.479l-1.327,2.479v1.984l-.59.5-1.033,5.786v8.76l-1.033.827.443.5-.443,1.323v3.14l-.59,2.479V1621.6l.59,4.96v9.587h1.476v.662l-1.033.661-.59,1.819h.59v3.8l1.623,10.248v1.323l1.033-.827v2.81l.59.33,1.033,3.8,1.476,1.984.442,1.984,4.722,5.621,3.1,1.983,7.081.662,6.344-3.967,4.721-5.456,3.541-6.612v-6.942l-4.131-.827Zm-29.949-16.86-.443-.827h.443Zm0-22.315-.443.661v-.661l.443-1.322Z" transform="translate(-267.1 -1564.243)" stroke="#000" stroke-width="1.25"></path>
          <path id="Path_4367" data-name="Path 4367" d="M345.714,1567.654l-1.476-.662h-3.1l-1.033,16.035v7.934h-1.623l-12.244,2.48-1.476-.5-.443-22.15-.885-2.975-4.131-2.81-2.507.662.3,45.622.295,5.125v3.305l.59,10.248v3.307l1.918,34.712,3.688,5.786,3.1-.991,1.181-2.149v-7.274l-1.034-2.809.443-.993-.443-6.281v-2.645l-.589-4.462v-3.307l-.443-4.958v-5.951l-.59-.661v-6.943l.59-2.645-.59-5.289v-14.547h2.065l10.18-1.984h2.656v10.91l-.589,1.158v23.307l2.8,3.967-2.8-2.645v5.62l.589,1.323v1.322l-.589-.661v11.571l1.327-.827-1.327,3.306,1.033-.662v2.645l.589.661-1.033.5v3.306l.444,1.322v6.448l.589.5-.885,1.984,1.033,2.479,1.918.826h3.54l1.476-1.322-1.328-14.877h-.59l-.442.661h-.885l1.917-3.306v-14.547l-.59-3.305h1.033v-32.729l.59-1.984-.59-.661.59-.5v-1.158l.443-3.305.443-30.911-2.066-2.644Zm-26.261,59.177-.443.495.443-1.157Zm22.72,43.142-.59-.661h.59Zm1.034.662-.3-1.984.3.661Zm0-8.6-.591.661.591-1.323Z" transform="translate(-270.473 -1564.183)" stroke="#000" stroke-width="1.25"></path>
          <path id="Path_4368" data-name="Path 4368" d="M386.805,1564.784l-2.951-.661h-7.966l-7.082,1.157-1.623.827-2.36-.827-2.361.992v16.365l-.59,1.322v12.728l-.442.662v8.926h1.032v.661h-1.032v34.713l.59,1.818-.59.661v3.967l.885.991-.885,2.315v1.818l1.475-.991v.991h-1.032v3.141l-.442.661v1.157h.442v9.091l.59,5.951,2.951,2.81,11.95-1.157h5.016l5.459-.662,2.951-3.636.59-2.645-1.032-1.322-2.214-.662-9.295.662h-6.491l-1.918.661-.591-1.323-1.327-50.912,4.426-1.653h2.951l5.606-.661,1.918-2.479v-3.967l-2.065-.991h-5.459l-6.2.826.886-31.737.885-1.323h3.393l8.115-.661h5.311l3.1-1.984v-3.8l-3.1-1.818Z" transform="translate(-273.502 -1564.123)" stroke="#000" stroke-width="1.25"></path>
          <path id="Path_4369" data-name="Path 4369" d="M429.223,1564.784l-2.951-.661h-7.966l-7.082,1.157-1.623.827-2.36-.827-2.361.992v16.365l-.59,1.322v12.728l-.442.662v8.926h1.032v.661h-1.032v34.713l.59,1.818-.59.661v3.967l.885.991-.885,2.315v1.818l1.475-.991v.991h-1.032v3.141l-.442.661v1.157h.442v9.091l.59,5.951,2.951,2.81,11.95-1.157H424.8l5.459-.662,2.951-3.636.59-2.645-1.032-1.322-2.214-.662-9.295.662h-6.491l-1.918.661-.591-1.323-1.327-50.912,4.426-1.653h2.951l5.606-.661,1.918-2.479v-3.967l-2.065-.991h-5.459l-6.2.826.886-31.737.885-1.323h3.393l8.115-.661H430.7l3.1-1.984v-3.8l-3.1-1.818Z" transform="translate(-276.381 -1564.123)" stroke="#000" stroke-width="1.25"></path>
          <path id="Path_4370" data-name="Path 4370" d="M456,1577.644v-.826l2.36-4.133,5.9,2.149,2.8,2.149,1.623,4.628,2.508,1.984,2.361-1.323.442.5,1.476-3.637-.886-4.132-4.426-5.29-9.442-3.636-5.459,1.322-2.656,2.314-2.95,1.653-1.77,2.149-1.623,5.786v9.091l18,42.978,2.213,7.935.885,11.24-.737,13.72-1.475,3.305-.442,1.818-.886.33-1.475,1.818h-3.393l-2.8-2.975-1.181-6.612.591-10.249.59-1.653-1.181-2.811h-1.475l-.591-.826-.885.826-1.918,1.157-1.918,2.149v18.018l1.475.826.442,2.81,1.623,1.818,6.2,3.141h6.787l3.983-2.314,4.426-5.125,1.77-7.273v-6.777l.59-1.158v-11.736l-2.213-10.414-10.918-26.447-1.033-1.818-6.344-14.051v-8.43Z" transform="translate(-279.26 -1564.255)" stroke="#000" stroke-width="1.25"></path>
          <path id="Path_4371" data-name="Path 4371" d="M497.922,1573.049h3.393l8.115-.661h5.311l3.1-1.984v-3.8l-3.1-1.818h-1.475l-2.951-.661h-7.966l-7.082,1.157-1.623.827-2.36-.827-2.361.992v16.365l-.59,1.322v12.728l-.442.662v8.926h1.032v.661H487.89v34.713l.59,1.818-.59.661v3.967l.885.991-.885,2.315v1.818l1.475-.991v.991h-1.032v3.141l-.442.661v1.157h.442v9.091l.59,5.951,2.951,2.81,11.95-1.157h5.016l5.459-.662,2.951-3.636.59-2.645-1.032-1.322-2.214-.662-9.295.662h-6.491l-1.918.661-.591-1.323-1.327-50.912,4.426-1.653h2.951l5.606-.661,1.918-2.479v-3.967l-2.065-.991h-5.459l-6.2.826.886-31.737Z" transform="translate(-282.085 -1564.123)" stroke="#000" stroke-width="1.25"></path>
        </g>
      </g>
    </g>
  </g>
</svg>
